<svg width="459" height="290" fill="none" xmlns="http://www.w3.org/2000/svg"><path opacity=".3" d="M315.094 197.909h82.755V232h25.142v-34.091h23.097V175.58h-23.097V57.454H390.52l-75.426 119.148v21.307zm82.926-22.329h-55.313v-1.364l53.949-85.398h1.364v86.762zM13.125 197.909h82.756V232h25.142v-34.091h23.096V175.58h-23.096V57.454H88.551L13.125 176.602v21.307zm82.926-22.329H40.74v-1.364l53.949-85.398h1.363v86.762z" fill="#ABABAB"/><path d="M190.198 132.422s-3.328 13.713-3.162 19.472c.168 5.764 2.549 14.076 11.128 25.439 8.58 11.363 18.561 24.074 22.441 27.912 3.881 3.837 26.102 9.433 39.351 10.656 13.249 1.224 19.181 4.334 19.181 4.334s4.235 2.931 5.265-1.16c1.031-4.091-.138-4.388-2.887-4.336-2.749.052-45.006-4.992-51.142-7.783-6.137-2.791-17.907-12.343-26.249-25.141-8.342-12.798-11.909-13.944-15.072-27.05 0 0 11.762-20.539 19.737-29.475 7.975-8.937 18.571-15.965 22.814-18.008l-1.189-1.209s-10.44 5.248-19.913 14.882-22.013 32.096-22.013 32.096 1.685-14.915 3.077-19.454l-1.367-1.175z" fill="#310117"/><path d="M257.018 99.543c4.599-2.847 7.778-7.446 10.829-11.914 1.019-1.495 2.038-2.99 3.062-4.485-2.599 1.78-4.704 4.2-7.142 6.198-2.264 1.853-5.457 3.807-8.498 3.222-2.842-.546-4.722-3.515-7.507-4.112-2.079-.449-4.136.789-5.768 2.149-1.637 1.36-3.221 2.96-5.29 3.45-1.576.373-3.236.047-4.846.265-3.561.48-6.664 3.224-8.689 6.651-1.878 3.18-2.829 6.94-2.37 10.026.061.408.189.968.374 1.584a50.404 50.404 0 0116.794-7.589c6.444-1.573 13.399-1.943 19.051-5.445z" fill="url(#paint0_linear)"/><path d="M224.129 117.469c1.84.762 3.519-1.32 5.374-2.047 2.59-1.017 5.463.738 8.234.495 2.935-.255 5.175-2.641 7.837-3.91 4.517-2.153 10.239-1.065 14.382-3.871 2.535-1.715 3.999-4.593 5.23-7.394a106.646 106.646 0 006.033-17.815c-.107.072-.212.15-.319.222-1.019 1.494-2.038 2.989-3.062 4.485-3.046 4.466-6.23 9.066-10.829 11.914-5.647 3.5-12.607 3.872-19.06 5.451a50.6 50.6 0 00-16.793 7.59c.572 1.884 1.662 4.336 2.973 4.88z" fill="url(#paint1_linear)"/><path d="M267.796 94.25l-5.401 1.102c4.226-4.898 8.476-11.69 8.715-12.076l-.205-.126c-.178.122-.351.254-.527.386-1.43 2.237-7.297 11.214-11.623 14.835a23.916 23.916 0 01.337-6.214c-.172.063-.341.12-.516.173a24.75 24.75 0 00-.27 6.404 9.48 9.48 0 01-.452.33c-2.215 1.518-4.736 2.515-7.699 3.311l-.033.007a65.867 65.867 0 01-3.604.848 28.161 28.161 0 014.718-10.145c.438-.592.906-1.161 1.392-1.714a11.076 11.076 0 01-.394-.276 28.637 28.637 0 00-5.272 8.987 28.217 28.217 0 00-.937 3.178c-.009.027-.004.05-.002.079-1.628.335-3.377.651-5.253.996-1.273.232-2.602.476-3.99.742-.155.03-.305.063-.459.097-.002-.01.002-.015 0-.025-.714-3.839-.199-7.865 1.399-11.424a5.79 5.79 0 01-.62.234 19.862 19.862 0 00-1.58 7.89c.011 1.14.12 2.283.328 3.404.001.005.007.009.009.018-4.195.924-7.736 2.568-10.304 4.041-.049-4.383 1.215-8.726 3.489-12.469.467-.774.985-1.516 1.533-2.235a9.76 9.76 0 00-.798.274c-2.341 3.237-3.925 7.019-4.487 10.987a22.022 22.022 0 00-.21 3.719c-2.229 1.325-3.64 2.464-3.987 2.757l.07.254.158.181c.028-.026 1.453-1.262 3.927-2.739.138.048.307-.009.308-.18l.039-.024a34.162 34.162 0 0013.167 4.164c1.089.113 2.184.166 3.28.175l.72-.468c-.015-.002-.026-.009-.046-.01a33.767 33.767 0 01-13.365-2.57c-1.116-.46-2.2-.996-3.26-1.577 2.697-1.516 6.402-3.171 10.778-4.003.979-.186 1.922-.36 2.845-.529a.201.201 0 00.031.047 56.427 56.427 0 007.546 6.295c.193-.057.392-.111.591-.164a56.33 56.33 0 01-7.602-6.283c.193-.038.391-.072.579-.108 3.549-.65 6.626-1.215 9.354-1.944a25.976 25.976 0 0010.348 2.677c.679.032 1.358.024 2.039-.003.116-.163.232-.326.343-.493a25.567 25.567 0 01-9.76-1.433 24.386 24.386 0 01-2.258-.944c2.736-.78 5.104-1.758 7.213-3.203 1.167-.802 2.479-2.081 3.807-3.575.043.02.09.034.151.02 1.84-.376 3.68-.747 5.514-1.122.053-.183.122-.36.186-.536z" fill="#fff"/><path d="M234.635 234.898c40.312 0 63.92-32.898 63.92-90.086 0-56.76-23.948-89.744-63.92-89.744-40.057 0-63.921 32.898-64.006 89.744 0 57.103 23.608 90 64.006 90.086zm0-22.756c-23.608 0-37.841-23.693-37.841-67.33.085-43.465 14.318-67.414 37.841-67.414 23.437 0 37.756 23.949 37.756 67.414 0 43.637-14.233 67.33-37.756 67.33z" fill="#E6E6E6"/><g clip-path="url(#clip0)"><path d="M164.176 178.919c2.514 2.064 5.548 3.616 8.789 3.883 5 .413 9.972-2.213 14.91-1.32 5.122.926 9.135 5.474 14.317 5.98.967.095 1.931.04 2.885-.102.061-.146.123-.287.175-.431 1.919-5.4-3.962-11.037-9.081-12.125-2.562-.544-5.249-.275-7.787-.912-3.907-.978-7.21-4.015-11.229-4.272-3.834-.244-7.409 2.113-11.252 2.21-4.373.111-8.229-2.678-11.708-5.334.042.187.092.372.138.558a173.969 173.969 0 003.339 4.629c1.946 2.596 3.988 5.167 6.504 7.236z" fill="url(#paint2_linear)"/><path d="M173.258 195.208c1.849-.153 3.544-1.164 5.394-1.331 2.211-.203 4.336.804 6.292 1.849 1.957 1.045 3.981 2.178 6.199 2.253 6.067.202 11.563-5.383 13.899-10.537l.037-.096c-.959.143-1.918.197-2.885.101-5.182-.505-9.194-5.049-14.317-5.979-4.934-.894-9.91 1.733-14.91 1.32-3.241-.267-6.28-1.818-8.789-3.884-2.515-2.064-4.557-4.634-6.505-7.24a173.969 173.969 0 01-3.339-4.629c1.939 8.041 5.16 15.358 9.904 22.153 2.168 3.122 5.244 6.332 9.02 6.02z" fill="url(#paint3_linear)"/><path d="M205.021 187.486c-2.383.31-5.066-.56-7.653-1.755a45.765 45.765 0 00-4.829-11.342c-.095-.008-.194-.011-.289-.019a45.763 45.763 0 014.833 11.227c-1.434-.679-2.838-1.443-4.137-2.152-.742-.406-1.456-.798-2.125-1.145a9.194 9.194 0 00-1.305-.556s-.004.001-.005-.004c-1.926-.659-3.904-.669-5.884-.444a33.405 33.405 0 00-6.747-11.698 8.857 8.857 0 00-.325-.007 33.022 33.022 0 016.828 11.735c-1.05.128-2.098.315-3.14.505-1.055.194-2.154.392-3.229.521-1.533.186-2.994.365-4.485.272-.003-.014.003-.03 0-.044a258.793 258.793 0 01-5.051-10.925l-.242.039a267.137 267.137 0 005.043 10.912c-2.776-.227-5.682-1.42-9.38-5.249a83.244 83.244 0 01-1.085-1.143 63.179 63.179 0 00-.308-4.066c-.045-.407-.1-.812-.155-1.216a8.64 8.64 0 01-.248-.102c.067.504.134 1.009.187 1.517a59.03 59.03 0 01.271 3.589c-4.734-5.13-7.042-8.946-7.048-8.955l-.108-.354a26.42 26.42 0 01-.2-.152c.041.187.092.372.138.558.046.187.096.372.142.558.803 1.24 3.275 4.848 7.495 9.312-1.114-.073-2.233.011-3.332-.212a7.706 7.706 0 01-1.375-.433c.043.104.084.202.122.307.385.145.776.275 1.182.357 1.207.249 2.437.135 3.653.244l.42.437c4.015 4.156 7.205 5.262 10.203 5.381a25.283 25.283 0 01-10.657 3.06l.138.23a25.55 25.55 0 0010.813-3.178c.044-.024.055-.066.056-.105 1.304.021 2.573-.136 3.868-.294 1.084-.131 2.183-.329 3.248-.524 3.055-.556 5.966-1.075 8.781-.205-1.572 1.077-2.868 2.471-4.23 3.791a36.602 36.602 0 01-5.164 4.159 37.252 37.252 0 01-9.792 4.624c.114.054.227.097.341.146a37.497 37.497 0 009.387-4.438 36.9 36.9 0 004.932-3.876c1.577-1.476 3.011-3.116 4.821-4.314.429.146.851.327 1.277.547.669.343 1.379.736 2.114 1.138 2.081 1.14 4.422 2.418 6.763 3.251-2.213 2.086-4.751 3.763-7.409 5.227a86.016 86.016 0 01-3.895 1.996c-1.067.52-2.173 1.131-3.329 1.469.016.007.033.018.049.024l.239.128c.887-.293 1.737-.73 2.58-1.132a91.425 91.425 0 004.283-2.17c2.744-1.497 5.371-3.219 7.648-5.368a.107.107 0 00.031-.105c1.746.606 3.489.947 5.115.785.045-.108.101-.233.16-.364z" fill="#fff"/><path d="M203.762 96.427c-2.733 1.951-4.962 4.674-8.054 5.973-2.621 1.102-5.914 1.244-7.602 3.529-2.269 3.074.1 7.485-.731 11.213-.596 2.677-2.806 4.777-3.402 7.458-1.01 4.538 2.803 8.576 6.318 11.646.409-2.885 1.504-9.329 3.751-14.797 2.999-7.285 6.817-8.313 9.503-15.348 2.303-6.039 5.688-10.816 10.279-12.857.055-.061.109-.127.169-.19a18.293 18.293 0 00-10.231 3.373z" fill="url(#paint4_linear)"/><path d="M203.541 106.101c-2.682 7.034-6.506 8.059-9.504 15.349-2.247 5.467-3.342 11.912-3.751 14.797l.098.086s4.947 3.225 8.206 2.928c3.264-.298 4.344-4.763 4.586-8.028.24-3.269.031-6.822 1.917-9.498 1.834-2.606 5.335-3.849 6.648-6.747 2.089-4.604-2.625-9.708-1.985-14.724.346-2.724 2.216-4.965 4.053-7.017-4.581 2.04-7.966 6.816-10.268 12.854z" fill="url(#paint5_linear)"/><path d="M205.661 101.104a17.096 17.096 0 01-1.557-4.904c-.106.073-.22.137-.325.214a17.484 17.484 0 001.683 5.101c-1.067 2.212-1.978 4.506-3.216 6.633-.802 1.368-1.769 2.611-2.765 3.83a26.022 26.022 0 01-4.187-9.408c-.113.044-.226.084-.34.124a26.455 26.455 0 004.297 9.575c-1.175 1.431-2.385 2.84-3.402 4.389a25.771 25.771 0 00-1.865 3.392c-2.257-3.097-4.517-6.252-5.988-9.811a23.081 23.081 0 01-.767-2.17 6.701 6.701 0 00-.102.851c1.089 3.207 2.886 6.131 4.82 8.897.614.875 1.242 1.741 1.868 2.604a35.673 35.673 0 00-1.81 5.135c-.501 1.822-.883 3.671-1.208 5.533a31.878 31.878 0 01-5.408-9.699c-.078.135-.155.275-.233.41a32.355 32.355 0 005.563 9.757 181.535 181.535 0 00-.588 3.739c-.036.238-.067.475-.103.714.092.083.184.165.275.243l.097.087s.018.015.051.033c.168-1.175.343-2.361.529-3.544 4.048.304 8.233.49 12.135-.802.016-.131.031-.262.042-.392-2.715.922-5.67 1.128-8.538 1.044a77.955 77.955 0 01-3.581-.207c.592-3.656 1.365-7.312 2.733-10.737a23.118 23.118 0 0010.257 2.221c.038-.121.084-.244.127-.362a22.893 22.893 0 01-6.588-.813 22.333 22.333 0 01-3.662-1.375 27.839 27.839 0 011.726-3.494c1.295-2.198 3.008-4.081 4.597-6.059.011.003.022.01.036.007a24.416 24.416 0 0011.443-2.836 37.88 37.88 0 01-.107-.349 23.95 23.95 0 01-11.088 2.817 30.77 30.77 0 001.323-1.783c1.319-1.933 2.266-4.069 3.234-6.195.022.01.047.014.076.013a11.649 11.649 0 004.651-1.103c-.018-.124-.031-.253-.044-.378a11.322 11.322 0 01-4.526 1.115c.222-.485.448-.972.685-1.455.206-.423.413-.841.635-1.258 1.554-2.937 3.816-5.867 7.066-6.961l.216-.244c.055-.061.109-.127.169-.19-.235.004-.47.026-.707.039-2.739.99-4.828 3.236-6.339 5.678a25.488 25.488 0 00-1.29 2.334z" fill="#fff"/><path d="M189.373 143.333c-1.257-3.096-3.754-5.885-7.025-6.596-2.008-.435-4.324-.131-5.91-1.434-2.978-2.452-.467-7.723-2.576-10.95-1.798-2.752-5.998-2.699-8.332-5.014l-3.17-6.749c-.676 5.9-1.021 11.944 1.035 17.468 2.764 7.423 9.355 12.609 15.449 17.675 4.4 3.659 8.863 7.755 11.553 12.684.901-2.185.816-4.819.663-7.247-.206-3.338-.431-6.74-1.687-9.837z" fill="url(#paint6_linear)"/><path d="M163.395 130.058c-2.056-5.525-1.705-11.565-1.035-17.469l-.315-.671-4.705 10.403c-1.791 3.954-3.602 7.992-4.073 12.308-.471 4.316.618 9.033 3.855 11.928 3.408 3.05 8.605 3.65 11.681 7.037 1.826 2.01 2.632 4.71 3.742 7.187 1.114 2.476 2.818 4.979 5.438 5.696 2.411.66 4.929-.371 7.188-1.447 1.521-.728 3.068-1.52 4.151-2.813a6.848 6.848 0 001.074-1.801c-2.689-4.928-7.152-9.024-11.553-12.683-6.093-5.066-12.684-10.253-15.448-17.675z" fill="url(#paint7_linear)"/><path d="M185.977 154.138a42.947 42.947 0 00-.93-15.633c-.059-.247-.129-.496-.193-.742-.101-.061-.198-.123-.304-.178a42.604 42.604 0 011.514 12.121 41.928 41.928 0 01-.298 4.209c-1.988-2.058-4.586-4.456-8.021-7.426.974-3.122.744-6.46.179-9.645-.05-.274-.106-.551-.157-.824a3.723 3.723 0 01-.262-.099c.684 3.439 1.07 7.012.04 10.392-.358-.309-.721-.621-1.095-.941-3.13-2.674-5.357-4.772-7.027-6.562a51.303 51.303 0 002.446-12.954c.063-1.073.08-2.151.078-3.229-.079-.046-.158-.093-.241-.133a51.142 51.142 0 01-1.503 12.732 49.673 49.673 0 01-.971 3.382c-3.251-3.535-4.289-5.886-5.77-9.227l-.164-.366c-.056-.12-.105-.252-.152-.378a26.785 26.785 0 002.255-9.569l-.223-.475a26.542 26.542 0 01-2.153 9.717c-1.772-5.013-.998-14.294-.831-16.072l-.148-.315-.23.512c-.193 2.062-.763 9.509.449 14.567-1.636-1.998-3.247-4.124-4.075-6.565l-.141.315c.915 2.53 2.65 4.727 4.357 6.797.122.444.264.864.419 1.256a.09.09 0 00.033.086c.035.091.071.186.109.27l.164.366c1.358 3.07 2.354 5.317 4.991 8.384-4.409-.451-8.928-.975-12.951-2.962a17.23 17.23 0 01-1.817-1.036c-.015.087-.024.177-.034.268 3.303 2.106 7.228 3.026 11.084 3.549 1.314.176 2.629.313 3.949.449 1.748 1.992 4.187 4.338 7.854 7.472.157.132.303.262.454.39-4.82.313-9.61.937-14.347 1.873-.888.176-1.781.348-2.685.386.134.073.263.148.402.22a15.577 15.577 0 001.635-.233c1.196-.224 2.389-.463 3.589-.668a108.938 108.938 0 0111.662-1.35l.005-.001c.169.145.338.289.502.434-.012.032-.019.068-.031.1-.051.149.176.221.226.073 0 0-.001-.005.004-.006 3.212 2.783 5.614 5.005 7.445 6.857a48.33 48.33 0 00-11.379 3.258c-.775.333-1.545.689-2.301 1.061l.092.22a47.839 47.839 0 0110.387-3.687 46.817 46.817 0 013.313-.632.09.09 0 00.064-.043c2.772 2.831 4.184 4.79 5.113 6.601.013-.028.027-.055.036-.082.047-.118.084-.239.126-.361-.969-1.792-2.375-3.654-4.542-5.923z" fill="#fff"/><path d="M177.052 226.989c2.576.32 5.19-.57 7.377-1.969 2.187-1.404 4.012-3.292 5.785-5.188 1.525-1.626 3.04-3.274 4.28-5.121 1.723-2.572 2.987-5.606 5.509-7.397 1.929-1.372 4.355-1.823 6.47-2.883a12.488 12.488 0 005.643-5.745c.271-.57.514-1.182.762-1.791-2.949-.899-4.898-5.359-8.163-5.09-3.982.333-6.614 4.12-9.905 6.385-4.219 2.906-10.253 3.78-12.609 8.33-1.545 2.983-.918 6.626-1.881 9.844-1.334 4.472-6.04 7.681-10.691 7.289l.464.55c.465.241.934.476 1.399.717 1.778.907 3.589 1.827 5.56 2.069z" fill="url(#paint8_linear)"/><path d="M188.599 233.084c2.781-1.956 3.195-6.26 6.11-8.01 2.598-1.558 5.893-.382 8.92-.309 4.018.1 8.026-2.004 10.227-5.368 2.067-3.167 2.546-7.18 4.677-10.303a11.438 11.438 0 014.969-4.062s-1.682-8.524-9.341-7.988a3.543 3.543 0 01-1.274-.151c-.242.613-.486 1.22-.762 1.791a12.516 12.516 0 01-5.643 5.745c-2.115 1.06-4.541 1.511-6.47 2.883-2.527 1.792-3.786 4.825-5.509 7.397-1.239 1.852-2.754 3.5-4.28 5.121-1.779 1.893-3.598 3.784-5.785 5.188-2.186 1.404-4.801 2.289-7.377 1.969-1.971-.242-3.782-1.162-5.55-2.067-.465-.24-.934-.475-1.399-.716 2.608 3.044 4.998 5.41 8.467 7.578 3.022 1.898 7.091 3.365 10.02 1.302z" fill="url(#paint9_linear)"/><path d="M214.49 218.252c.003.014.002.029.005.043.072-.139.144-.282.211-.419-.013-.149-.02-.295-.034-.444a33.008 33.008 0 00-.586-3.975c-.549-2.644-1.371-5.219-2.284-7.759a189.695 189.695 0 00-1.543-4.107c1.172-1.244 2.261-2.803 2.792-4.641l-.173-.05-.173-.051c-.517 1.791-1.584 3.311-2.73 4.52-.007-.008-.008-.013-.015-.021a36.339 36.339 0 00-10.796-3.623 36.536 36.536 0 00-3.218-.384c-.058.047-.117.095-.176.137.01.047.039.089.099.091a35.918 35.918 0 0110.991 2.594c1.003.411 1.987.871 2.951 1.375a18.502 18.502 0 01-3.432 2.737c-.79.488-1.78.848-2.829 1.227l-.717.261c-.062-.036-.149-.007-.168.061-.544.203-1.092.427-1.628.688-.007-.009-.003-.014-.015-.022-1.889-1.251-4.134-1.736-6.332-2.1a47.656 47.656 0 00-7.553-.63 49.777 49.777 0 00-2.728.081 4.73 4.73 0 00-.292.256 46.583 46.583 0 016.263.027c2.357.172 4.76.461 7.049 1.079 1.183.318 2.326.767 3.36 1.432-1.163.595-2.244 1.387-3.001 2.579a99.824 99.824 0 01-2.555 3.779c-.011-.002-.014-.016-.029-.018a38.647 38.647 0 00-13.226.037c-.373.067-.737.148-1.108.224-.006.085-.017.166-.028.252a38.382 38.382 0 0110.618-.727c1.21.086 2.42.236 3.617.438-2.212 3.111-5.055 6.768-7.605 9.213-.032.032-.065.059-.102.091-2.76-1.662-6.009-2.098-9.168-2.417-.067.074-.14.144-.212.219.621.059 1.239.124 1.859.203 1.664.207 3.326.493 4.913 1.045.844.29 1.657.665 2.419 1.119-3.93 3.657-7.386 4.732-11.833 3.687-2.927-.688-4.648-1.888-5.529-2.704-.065-.005-.132 0-.197-.006l.464.55c.144.165.283.325.426.485 1.022.721 2.549 1.512 4.752 2.027 1.964.46 3.739.524 5.446.148 2.02-.445 3.947-1.512 5.971-3.253-.08 3.553-1.23 7.077-3.339 9.945-.064.088-.135.167-.199.255.089.024.181.043.274.062 1.661-2.161 2.75-4.808 3.233-7.445.181-1.001.276-2.017.282-3.034.259-.228.521-.463.779-.716 2.288-2.191 4.804-5.344 6.897-8.218.368 3.493.452 7.01.264 10.519.084-.043.167-.091.25-.134.129-2.465.123-4.94-.024-7.409a62.673 62.673 0 00-.278-3.263 102.966 102.966 0 003.256-4.758c1.093-1.717 2.843-2.544 4.644-3.225.698 2.567 1.393 5.14 2.091 7.708.651 2.397 1.332 4.821 1.499 7.314a14.271 14.271 0 01-.154 3.324c.084-.018.169-.032.253-.051.339-2.09.134-4.221-.279-6.293-.524-2.601-1.298-5.157-1.995-7.72l-1.184-4.368.713-.26c1.067-.387 2.075-.751 2.895-1.26a18.936 18.936 0 003.51-2.804c1.789 4.646 3.575 9.367 4.213 14.331.104.717.168 1.429.208 2.146z" fill="#fff"/><path d="M208.49 172.075c1.109-2.98 3.607-5.282 4.72-8.263.86-2.308.822-4.839 1.121-7.284.795-6.539 4.192-13.241 9.201-17.723.006-.016.011-.037.022-.054-5.529 2.454-11.47 5.288-14.188 10.688-1.771 3.514-2.005 7.856-4.666 10.757-1.245 1.358-2.923 2.267-4.133 3.652-1.996 2.288-2.461 5.607-1.925 8.593.536 2.991 1.933 5.747 3.331 8.44 3.332 6.42 6.565 8.252 6.565 8.252l.528-.072c-.348-2.713-.68-5.425-.985-8.143-.333-2.957-.628-6.05.409-8.843z" fill="url(#paint10_linear)"/><path d="M217.984 186.742c2.903-1.493 5.377-4.24 5.629-7.498.299-3.875-2.521-7.745-1.332-11.45 1.019-3.166 4.606-4.888 5.88-7.964 2.852-6.881-7.425-14.153-4.631-21.03-5.009 4.482-8.406 11.183-9.2 17.723-.299 2.449-.257 4.975-1.121 7.284-1.113 2.981-3.612 5.282-4.72 8.263-1.037 2.793-.743 5.886-.413 8.849.304 2.717.637 5.429.985 8.143 3.071-.417 6.175-.905 8.923-2.32z" fill="url(#paint11_linear)"/><path d="M228.427 155.295c-3.473 1.643-7.427 1.921-11.121 2.872a21.83 21.83 0 00-3.051 1.016c.359-3.531 1.367-7.009 2.795-10.256.16-.364.327-.719.499-1.071a17.453 17.453 0 006.419-2.445c-.031-.076-.057-.149-.089-.225a17.35 17.35 0 01-6.203 2.402 48.364 48.364 0 011.929-3.466c.883-1.464 1.74-2.982 2.89-4.26.264-.294.542-.566.839-.823.074-.065.071-.143.032-.208l-.651.291c-1.088 1.049-1.924 2.351-2.706 3.631-.922 1.513-1.85 3.022-2.632 4.611-.196.401-.386.806-.571 1.215-.161-1.245-.3-2.499-.298-3.755a12.53 12.53 0 01.159-2.016c.041-.239.091-.476.147-.713-.096.055-.192.11-.281.169-.144.66-.222 1.329-.251 2.002-.062 1.588.13 3.169.339 4.741-1.255 2.87-2.188 5.935-2.616 9.02-.064.446-.107.896-.145 1.346a.11.11 0 00-.005.089c-.011.126-.018.25-.031.37-.79-1.606-1.581-3.211-2.362-4.819-.834-1.719-1.638-3.518-1.74-5.452a6.63 6.63 0 01.003-.785c-.088.157-.177.309-.259.469.03 2.808 1.653 5.613 2.847 8.047l1.47 3c-.091 1.011-.213 2.014-.545 2.979-.573 1.671-1.713 3.06-2.701 4.494-.201.289-.391.586-.57.885a28.56 28.56 0 01-3.877-10.472c-.063.117-.122.228-.19.341a28.725 28.725 0 003.921 10.36c-.61 1.036-1.101 2.125-1.409 3.306-.411 1.562-.559 3.183-.547 4.794.01 1.645.17 3.287.382 4.917l.098.709a36.523 36.523 0 01-4.968-5.608c-1.532-2.148-2.964-4.505-3.748-7.039-.369-1.184-.565-2.41-.528-3.644a9.174 9.174 0 00-.239.719c.094 2.142.866 4.217 1.852 6.113 1.233 2.367 2.781 4.585 4.521 6.604a36.533 36.533 0 003.165 3.24c.082.571.165 1.146.237 1.718-.029.046-.017.102.017.144.115.901.206 1.803.234 2.709.014.487.01.978-.02 1.465a.212.212 0 00.007.057l.191-.027.157-.02c.077-1.409-.041-2.81-.216-4.204a36.738 36.738 0 0011.978-5.081 37.252 37.252 0 002.608-1.894 26.275 26.275 0 01-.032-.278 36.349 36.349 0 01-11.282 6.101c-1.088.357-2.19.654-3.305.91-.052-.411-.112-.819-.168-1.228-.235-1.665-.461-3.336-.546-5.014-.115-2.235.013-4.499.675-6.616.852.194 1.72.086 2.58-.039a35.865 35.865 0 0010.47-3.2 1.67 1.67 0 00.132-.069c.018-.097.046-.191.074-.286-.439.21-1.015.469-1.095.506a35.104 35.104 0 01-5.143 1.869c-1.141.321-2.3.581-3.471.785-1.115.192-2.345.463-3.47.206.273-.83.635-1.636 1.088-2.407a.106.106 0 00.05-.085c.018-.028.031-.056.05-.084.9-1.454 2.029-2.762 2.828-4.277.683-1.303.943-2.684 1.092-4.119.003-.011.001-.02.005-.026.027-.256.052-.516.074-.776.008-.095.022-.186.032-.277 3.928-1.689 8.29-1.807 12.325-3.148a16.992 16.992 0 001.923-.772c-.022-.078-.035-.159-.052-.238z" fill="#fff"/><path d="M216.418 221.731c-3.625-2.256-4.941-6.688-2.943-9.904 1.998-3.216 6.558-3.995 10.184-1.739 3.625 2.255 4.941 6.688 2.943 9.903-2.004 3.212-6.564 3.992-10.184 1.74z" fill="url(#paint12_linear)"/><path d="M209.867 218.747c-3.353-2.085-4.571-6.191-2.721-9.163 1.851-2.972 6.07-3.696 9.423-1.611 3.352 2.086 4.571 6.191 2.72 9.163-1.849 2.977-6.069 3.697-9.422 1.611z" fill="url(#paint13_linear)"/><path d="M218.322 215.549c.089.403-.135.79-.499.871-.365.08-.731-.178-.819-.58-.089-.402.134-.79.499-.87.365-.08.731.177.819.579zm3.41 6.085c.364-.08.588-.47.499-.87-.088-.401-.455-.66-.819-.58-.364.08-.588.47-.499.87.088.401.455.66.819.58z" fill="#740117"/><path d="M228.309 220.571c-3.352-2.085-4.571-6.19-2.72-9.163 1.85-2.972 6.069-3.696 9.422-1.611 3.353 2.086 4.571 6.191 2.721 9.163-1.85 2.977-6.069 3.701-9.423 1.611z" fill="url(#paint14_linear)"/><path d="M228.184 212.685c.364-.08.588-.47.5-.87-.089-.401-.455-.66-.82-.58-.364.08-.587.47-.499.87.088.401.455.66.819.58z" fill="#740117"/><path d="M211.228 124.605c.075 2.655-1.777 4.863-4.136 4.927-2.359.064-4.328-2.037-4.398-4.694-.071-2.657 1.776-4.863 4.136-4.927 2.354-.063 4.327 2.037 4.398 4.694z" fill="url(#paint15_linear)"/><path d="M217.761 123.345c.076 2.656-1.777 4.864-4.136 4.928-2.359.064-4.328-2.037-4.398-4.694-.076-2.656 1.777-4.864 4.136-4.928 2.354-.063 4.327 2.038 4.398 4.694z" fill="url(#paint16_linear)"/><path d="M211.901 119.955c-1.327 2.302-4.064 3.21-6.104 2.031-2.039-1.178-2.617-3.998-1.29-6.301 1.326-2.302 4.063-3.21 6.103-2.031 2.04 1.178 2.617 3.998 1.291 6.301z" fill="url(#paint17_linear)"/><path d="M209.809 114.292c.088.402-.135.789-.5.87-.365.08-.731-.178-.819-.58-.089-.402.135-.79.499-.87.365-.08.732.182.82.58z" fill="#740117"/><path d="M207.275 132.385c-1.327 2.302-4.064 3.21-6.104 2.031-2.039-1.178-2.618-4.003-1.29-6.301 1.326-2.302 4.063-3.21 6.103-2.031 2.044 1.177 2.623 4.002 1.291 6.301z" fill="url(#paint18_linear)"/><path d="M202.159 132.821c.089.402-.135.79-.499.87-.365.081-.731-.177-.82-.579-.088-.402.135-.79.5-.87.365-.081.732.182.819.579zm12.516-6.485c.088.402-.135.79-.5.87-.365.08-.73-.177-.819-.58-.089-.402.135-.789.5-.87.364-.08.731.182.819.58z" fill="#740117"/><path d="M184.741 149.776c3.002-.661 4.83-3.938 4.085-7.319-.745-3.38-3.782-5.585-6.783-4.923-3.001.661-4.83 3.938-4.084 7.319.745 3.38 3.781 5.585 6.782 4.923z" fill="url(#paint19_linear)"/><path d="M199.012 142.443c-.505 3.426-3.375 5.844-6.416 5.396-3.04-.448-5.095-3.584-4.59-7.01.505-3.426 3.376-5.844 6.416-5.396 3.04.443 5.094 3.58 4.59 7.01z" fill="url(#paint20_linear)"/><path d="M197.382 160.407c-.506 3.426-3.376 5.843-6.416 5.395-3.041-.448-5.096-3.584-4.591-7.01.505-3.426 3.376-5.844 6.416-5.396 3.04.443 5.096 3.584 4.591 7.011z" fill="url(#paint21_linear)"/><path d="M201.373 164.631c1.902 2.891 1.368 6.608-1.198 8.296-2.565 1.688-6.187.717-8.095-2.178-1.907-2.894-1.368-6.607 1.197-8.295 2.566-1.689 6.189-.712 8.096 2.177z" fill="url(#paint22_linear)"/><path d="M202.741 152.021c-.505 3.426-3.375 5.844-6.411 5.395-3.041-.448-5.095-3.584-4.595-7.009.505-3.426 3.375-5.844 6.411-5.395 3.036.449 5.096 3.584 4.595 7.009z" fill="url(#paint23_linear)"/><path d="M195.76 152.32c-.505 3.426-3.375 5.843-6.416 5.395-3.04-.448-5.095-3.584-4.59-7.01.505-3.426 3.376-5.844 6.416-5.396 3.04.443 5.096 3.585 4.59 7.011z" fill="url(#paint24_linear)"/><path d="M187.661 162.269c.096 3.461-2.316 6.336-5.386 6.419-3.071.084-5.635-2.651-5.732-6.116-.096-3.46 2.315-6.336 5.386-6.419 3.071-.084 5.636 2.656 5.732 6.116z" fill="url(#paint25_linear)"/><path d="M204.213 154.517c3.031 1.675 4.282 5.215 2.795 7.901s-5.15 3.508-8.177 1.832c-3.032-1.676-4.283-5.215-2.796-7.902 1.487-2.686 5.15-3.508 8.178-1.831z" fill="url(#paint26_linear)"/><path d="M192.411 167.847c.096 3.46-2.316 6.335-5.386 6.419-3.071.083-5.635-2.652-5.732-6.117-.096-3.46 2.315-6.335 5.386-6.419 3.072-.079 5.636 2.656 5.732 6.117z" fill="url(#paint27_linear)"/><path d="M188.016 154.359c.198 3.458-2.129 6.403-5.194 6.578-3.065.176-5.712-2.487-5.91-5.944-.198-3.458 2.129-6.403 5.195-6.578 3.066-.171 5.716 2.486 5.909 5.944z" fill="url(#paint28_linear)"/><path d="M199.911 147.056c.089.402-.135.79-.5.87-.364.08-.73-.177-.819-.58-.088-.402.135-.789.5-.87.365-.08.73.178.819.58zm-18.312-6.664c.088.402-.135.789-.5.87-.365.08-.73-.177-.819-.58-.089-.402.135-.789.499-.87.365-.08.731.178.82.58zm13.444-2.277c.089.402-.135.79-.5.87-.364.081-.73-.177-.819-.579-.088-.402.135-.79.5-.87.366-.076.731.182.819.579zm-3.384 10.343c.364-.081.587-.47.499-.871-.088-.4-.455-.659-.819-.579-.364.08-.588.47-.5.87.089.4.455.66.82.58zm-9.204 2.719c.365-.08.588-.47.5-.87-.088-.4-.455-.66-.819-.58-.364.081-.588.47-.5.871.089.4.455.659.819.579zm4.13 21.872c.364-.08.588-.47.5-.87-.088-.401-.455-.66-.819-.58-.364.08-.588.47-.5.87.088.401.455.66.819.58zm-7.995-8.732c.364-.081.588-.47.5-.87-.088-.401-.455-.66-.819-.58-.364.08-.588.47-.5.87.088.401.455.66.819.58zm26.922-1.859c.364-.08.588-.47.5-.87-.089-.4-.455-.66-.819-.579-.365.08-.588.469-.5.87.088.4.455.66.819.579zm-4.91 8.399c.088.402-.135.789-.5.87-.365.08-.731-.178-.819-.58-.089-.402.135-.789.499-.87.365-.08.731.177.82.58z" fill="#740117"/></g><defs><linearGradient id="paint0_linear" x1="275.635" y1="79.57" x2="213.776" y2="113.36" gradientUnits="userSpaceOnUse"><stop/><stop offset="1" stop-color="#6F8C02"/></linearGradient><linearGradient id="paint1_linear" x1="225.314" y1="122.494" x2="277.711" y2="80.849" gradientUnits="userSpaceOnUse"><stop stop-color="#3E5902"/><stop offset="1" stop-color="#6F8C02"/></linearGradient><linearGradient id="paint2_linear" x1="157.565" y1="181.786" x2="202.925" y2="171.788" gradientUnits="userSpaceOnUse"><stop stop-color="#3E5902"/><stop offset="1" stop-color="#6F8C02"/></linearGradient><linearGradient id="paint3_linear" x1="158.467" y1="185.817" x2="202.596" y2="176.092" gradientUnits="userSpaceOnUse"><stop/><stop offset="1" stop-color="#6F8C02"/></linearGradient><linearGradient id="paint4_linear" x1="182.048" y1="118.897" x2="217.937" y2="110.987" gradientUnits="userSpaceOnUse"><stop/><stop offset="1" stop-color="#6F8C02"/></linearGradient><linearGradient id="paint5_linear" x1="186.825" y1="120.539" x2="218.304" y2="113.601" gradientUnits="userSpaceOnUse"><stop stop-color="#3E5902"/><stop offset="1" stop-color="#6F8C02"/></linearGradient><linearGradient id="paint6_linear" x1="165.141" y1="138.98" x2="187.573" y2="134.036" gradientUnits="userSpaceOnUse"><stop stop-color="#3E5902"/><stop offset="1" stop-color="#6F8C02"/></linearGradient><linearGradient id="paint7_linear" x1="154.193" y1="143.056" x2="185.067" y2="136.251" gradientUnits="userSpaceOnUse"><stop/><stop offset="1" stop-color="#6F8C02"/></linearGradient><linearGradient id="paint8_linear" x1="167.674" y1="214.748" x2="214.539" y2="204.419" gradientUnits="userSpaceOnUse"><stop stop-color="#3E5902"/><stop offset="1" stop-color="#6F8C02"/></linearGradient><linearGradient id="paint9_linear" x1="169.63" y1="222.06" x2="224.58" y2="209.948" gradientUnits="userSpaceOnUse"><stop/><stop offset="1" stop-color="#6F8C02"/></linearGradient><linearGradient id="paint10_linear" x1="197.649" y1="168.019" x2="228.501" y2="161.219" gradientUnits="userSpaceOnUse"><stop stop-color="#3E5902"/><stop offset="1" stop-color="#6F8C02"/></linearGradient><linearGradient id="paint11_linear" x1="204.142" y1="166.725" x2="229.703" y2="161.091" gradientUnits="userSpaceOnUse"><stop/><stop offset="1" stop-color="#6F8C02"/></linearGradient><linearGradient id="paint12_linear" x1="212.893" y1="217.483" x2="227.179" y2="214.334" gradientUnits="userSpaceOnUse"><stop stop-color="#8C0504"/><stop offset="1" stop-color="#D90504"/></linearGradient><linearGradient id="paint13_linear" x1="206.607" y1="214.819" x2="219.826" y2="211.905" gradientUnits="userSpaceOnUse"><stop stop-color="#D90504"/><stop offset="1" stop-color="#EF4D04"/></linearGradient><linearGradient id="paint14_linear" x1="225.05" y1="216.645" x2="238.269" y2="213.731" gradientUnits="userSpaceOnUse"><stop stop-color="#D90504"/><stop offset="1" stop-color="#EF4D04"/></linearGradient><linearGradient id="paint15_linear" x1="202.772" y1="125.644" x2="211.151" y2="123.797" gradientUnits="userSpaceOnUse"><stop stop-color="#8C0504"/><stop offset="1" stop-color="#D90504"/></linearGradient><linearGradient id="paint16_linear" x1="209.306" y1="124.387" x2="217.685" y2="122.541" gradientUnits="userSpaceOnUse"><stop stop-color="#8C0504"/><stop offset="1" stop-color="#D90504"/></linearGradient><linearGradient id="paint17_linear" x1="203.785" y1="118.793" x2="212.621" y2="116.846" gradientUnits="userSpaceOnUse"><stop stop-color="#D90504"/><stop offset="1" stop-color="#EF4D04"/></linearGradient><linearGradient id="paint18_linear" x1="199.161" y1="131.226" x2="207.997" y2="129.278" gradientUnits="userSpaceOnUse"><stop stop-color="#D90504"/><stop offset="1" stop-color="#EF4D04"/></linearGradient><linearGradient id="paint19_linear" x1="177.962" y1="144.852" x2="188.826" y2="142.457" gradientUnits="userSpaceOnUse"><stop stop-color="#8C0504"/><stop offset="1" stop-color="#D90504"/></linearGradient><linearGradient id="paint20_linear" x1="187.986" y1="142.85" x2="199.036" y2="140.414" gradientUnits="userSpaceOnUse"><stop stop-color="#D90504"/><stop offset="1" stop-color="#EF4D04"/></linearGradient><linearGradient id="paint21_linear" x1="186.353" y1="160.814" x2="197.403" y2="158.379" gradientUnits="userSpaceOnUse"><stop stop-color="#8C0504"/><stop offset="1" stop-color="#7E0504"/></linearGradient><linearGradient id="paint22_linear" x1="191.199" y1="168.909" x2="202.252" y2="166.473" gradientUnits="userSpaceOnUse"><stop stop-color="#8C0504"/><stop offset="1" stop-color="#D90504"/></linearGradient><linearGradient id="paint23_linear" x1="191.711" y1="152.433" x2="202.761" y2="149.998" gradientUnits="userSpaceOnUse"><stop stop-color="#8C0504"/><stop offset="1" stop-color="#D90504"/></linearGradient><linearGradient id="paint24_linear" x1="184.734" y1="152.728" x2="195.784" y2="150.293" gradientUnits="userSpaceOnUse"><stop stop-color="#8C0504"/><stop offset="1" stop-color="#D90504"/></linearGradient><linearGradient id="paint25_linear" x1="176.642" y1="163.625" x2="187.56" y2="161.219" gradientUnits="userSpaceOnUse"><stop stop-color="#8C0504"/><stop offset="1" stop-color="#D90504"/></linearGradient><linearGradient id="paint26_linear" x1="195.69" y1="160.669" x2="207.353" y2="158.099" gradientUnits="userSpaceOnUse"><stop stop-color="#D90504"/><stop offset="1" stop-color="#EF4D04"/></linearGradient><linearGradient id="paint27_linear" x1="181.393" y1="169.205" x2="192.311" y2="166.799" gradientUnits="userSpaceOnUse"><stop stop-color="#D90504"/><stop offset="1" stop-color="#EF4D04"/></linearGradient><linearGradient id="paint28_linear" x1="177.014" y1="155.879" x2="187.917" y2="153.476" gradientUnits="userSpaceOnUse"><stop stop-color="#D90504"/><stop offset="1" stop-color="#EF4D04"/></linearGradient><clipPath id="clip0"><path fill="#fff" transform="rotate(-12.429 569.391 -593.096)" d="M0 0h133.121v140.783H0z"/></clipPath></defs></svg>