<svg width="367" height="750" fill="none" xmlns="http://www.w3.org/2000/svg"><path d="M237.079 817.973c99.192-4.997 192.527-50.703 257.158-116.85C612.093 580.502 607.376 438.99 523.33 356.871c-71.594-69.953-150.857-71.343-235.828-34.197l-89.569 38.739c-61.239 26.868-104.83 49.686-135.957 19.271-28.794-28.133-20.822-70.542 17.196-109.451 39.539-40.467 85.5-57.926 143.876-66.297l-16.106-128.3c-86.159.999-169.574 39.666-226.6 98.03-102.65 105.057-109.48 245.934-25.435 328.053 73.93 72.234 166.171 65.01 238.887 32.622l91.886-37.995c62.018-26.109 100.268-45.017 132.174-13.843 30.349 29.655 26.215 71.249-20.167 118.719-41.06 42.023-108.471 67.425-174.575 72.807l13.967 142.944z" fill="#fff"/><path d="M131.204 378.777l3.26-1.411-2.106-4.868 1.982-.857c3.04-1.315 4.969-3.928 3.511-7.298-1.506-3.481-4.49-3.549-7.618-2.196l-5.243 2.268 6.214 14.362zm.039-8.856l-1.878-4.339 1.785-.772c1.718-.743 2.881-.593 3.529.905.648 1.498.132 2.662-1.652 3.434l-1.784.772zm12.538-.194c.8 1.85 2.685 2.76 4.667 1.903 1.234-.534 2.021-1.554 2.594-2.77l.066-.028.728 1.018 2.643-1.143-2.706-6.256c-1.449-3.348-3.677-4.267-6.474-3.057-1.718.744-3.025 2.015-4.05 3.452l2.069 1.642c.791-1.075 1.554-1.849 2.479-2.25 1.167-.505 1.919-.098 2.404.843-4.126 2.308-5.411 4.355-4.42 6.646zm2.979-1.577c-.362-.837.101-1.822 2.28-3.131l.829 1.917c-.325.82-.657 1.382-1.406 1.706-.771.334-1.398.213-1.703-.492zm12.446-1.488l3.238-1.401-2.745-6.344c-.066-1.723.719-2.69 1.534-3.043.462-.2.821-.277 1.265-.338l-.681-3.027c-.366.002-.778.076-1.395.342-1.124.486-2.008 1.706-2.162 3.525l-.089.038-1.049-1.821-2.643 1.143 4.727 10.926zm9.448-8.795c1.096 2.533 2.887 3.772 5.596 2.599 1.058-.457 1.755-1.02 2.252-1.444l-1.526-2.138c-.239.234-.588.516-.94.668-.859.372-1.629.104-2.163-1.13l-1.896-4.383 2.621-1.134-1.096-2.533-2.621 1.134-1.258-2.908-2.688 1.163.884 3.069-1.617.857 1.039 2.401 1.498-.648 1.915 4.427zm11.654-.335l3.238-1.401-3.192-7.379c.409-.988.754-1.581 1.569-1.934.925-.4 1.553-.097 2.239 1.489l2.754 6.366 3.238-1.401-2.935-6.784c-1.182-2.732-2.919-3.967-5.298-2.938-1.476.638-2.244 1.886-2.788 3.167l-.088.038-.82-1.292-2.644 1.144 4.727 10.925zm11.55-11.482c1.563 3.612 4.879 4.688 8.007 3.335 1.299-.563 2.553-1.654 3.343-2.911l-1.928-1.494c-.583.828-1.227 1.394-2.042 1.747-1.454.629-2.87.379-3.871-1.15l6.542-2.83c-.048-.293-.211-.85-.459-1.423-1.286-2.973-3.81-4.575-6.915-3.231-2.622 1.134-4.211 4.41-2.677 7.957zm2.62-2.468c-.409-1.549.177-2.613 1.19-3.051 1.3-.562 2.21.09 2.753 1.346l-3.943 1.705zm13.73 1.879l3.238-1.401-2.745-6.344c-.065-1.723.719-2.69 1.534-3.043.463-.2.822-.277 1.266-.338l-.682-3.026c-.366.001-.778.075-1.395.342-1.123.486-2.008 1.705-2.162 3.524l-.088.038-1.05-1.821-2.643 1.144 4.727 10.925zm17.494-7.569l3.26-1.41-2.106-4.868 1.983-.858c3.039-1.315 4.968-3.928 3.51-7.298-1.505-3.48-4.49-3.549-7.618-2.195l-5.242 2.268 6.213 14.361zm.039-8.855l-1.877-4.34 1.784-.772c1.718-.743 2.881-.592 3.53.905.648 1.498.132 2.663-1.653 3.435l-1.784.772zm11.527-2.634c1.573 3.634 5.033 4.622 7.808 3.421 2.754-1.191 4.404-4.39 2.831-8.024-1.572-3.634-5.033-4.621-7.786-3.43-2.775 1.201-4.425 4.399-2.853 8.033zm3.326-1.439c-.819-1.894-.683-3.392.661-3.973 1.322-.572 2.529.344 3.348 2.239.82 1.894.661 3.401-.661 3.973-1.343.581-2.528-.345-3.348-2.239zm13.841.497l3.238-1.401-2.744-6.344c-.066-1.723.719-2.69 1.533-3.043.463-.2.822-.277 1.266-.338l-.681-3.027c-.366.002-.779.076-1.395.342-1.124.486-2.008 1.706-2.163 3.525l-.088.038-1.049-1.821-2.643 1.143 4.726 10.926zm9.449-8.795c1.096 2.533 2.887 3.772 5.596 2.599 1.058-.457 1.755-1.02 2.252-1.444l-1.527-2.138c-.238.234-.587.516-.94.668-.859.372-1.629.104-2.162-1.13l-1.897-4.383 2.622-1.134-1.096-2.533-2.622 1.134-1.258-2.908-2.687 1.163.884 3.069-1.617.857 1.039 2.401 1.497-.648 1.916 4.427zm9.684-3.092c.801 1.851 2.685 2.761 4.668 1.904 1.233-.534 2.021-1.555 2.593-2.77l.066-.029.729 1.019 2.643-1.144-2.707-6.255c-1.448-3.348-3.676-4.267-6.474-3.057-1.718.743-3.024 2.015-4.05 3.452l2.07 1.641c.79-1.074 1.553-1.849 2.479-2.249 1.167-.505 1.918-.098 2.404.843-4.127 2.308-5.412 4.355-4.421 6.645zm2.979-1.576c-.362-.837.101-1.822 2.28-3.131l.83 1.916c-.325.821-.658 1.383-1.406 1.707-.771.333-1.399.213-1.704-.492zm10.979-4.881c.952 2.203 2.33 3.333 4.555 2.37.727-.314 1.23-.663 1.516-.969l-1.436-2.23a1.456 1.456 0 01-.377.216c-.264.114-.668.027-.963-.655l-5.27-12.181-3.238 1.401 5.213 12.048z" fill="#fff"/></svg>