<svg width="130" height="51" fill="none" xmlns="http://www.w3.org/2000/svg"><path d="M0 27.901c3.191 2.972 7.478 4.506 11.526 4.506 7.382 0 11.669-4.506 11.669-9.683 0-4.411-2.381-6.952-6.144-8.486l-3.953-1.63c-2.715-1.102-4.763-1.774-4.763-3.691 0-1.774 1.572-2.829 3.953-2.829 2.477 0 4.43.911 6.477 2.493l3.525-4.458C19.623 1.438 15.86 0 12.288 0c-6.43 0-11.05 4.123-11.05 9.3 0 4.555 3.049 7.24 6.287 8.534l4.001 1.726c2.715 1.15 4.477 1.773 4.477 3.739 0 1.87-1.429 3.02-4.334 3.02-2.572 0-5.43-1.342-7.62-3.26L0 27.901zm30.478 3.931h7.049V.575h-7.05v31.257zm16.384 0h7.049V21.237h4.286c6.573 0 12.145-3.26 12.145-10.594 0-7.575-5.381-10.068-12.145-10.068H46.862v31.257zm7.049-16.204V6.184h3.858c3.715 0 5.715 1.199 5.715 4.459s-1.857 4.985-5.715 4.985H53.91zm23.893 16.204h7.05V21.237h4.286c6.572 0 12.145-3.26 12.145-10.594 0-7.575-5.382-10.068-12.145-10.068H77.804v31.257zm7.05-16.204V6.184h3.857c3.715 0 5.716 1.199 5.716 4.459s-1.858 4.985-5.716 4.985h-3.858zm28.762 16.204h7.001V20.71L130 .575h-7.335l-2.762 7.191c-.857 2.35-1.762 4.507-2.62 6.904h-.19c-.905-2.397-1.715-4.555-2.525-6.904l-2.81-7.19h-7.477l9.335 20.134v11.122zM1.572 50.808h2.35v-3.531H5.35c2.191 0 4.049-1.087 4.049-3.532 0-2.525-1.794-3.356-4.049-3.356H1.572v10.42zm2.35-5.401v-3.148h1.285c1.239 0 1.905.4 1.905 1.486 0 1.087-.619 1.662-1.905 1.662H3.921zm8.364 3.196c0 1.342.905 2.397 2.334 2.397.889 0 1.635-.416 2.302-1.007h.048l.174.815h1.905V46.27c0-2.429-1.111-3.58-3.127-3.58-1.239 0-2.366.432-3.366 1.04l.826 1.55c.762-.448 1.428-.72 2.095-.72.842 0 1.191.447 1.239 1.15-3.112.32-4.43 1.231-4.43 2.893zm2.223-.176c0-.607.54-1.086 2.207-1.31v1.39c-.413.416-.763.671-1.302.671-.556 0-.905-.24-.905-.75zm8.649 2.381h2.333v-4.602c.413-1.07 1.143-1.454 1.73-1.454.334 0 .572.048.858.128l.381-2.03c-.222-.096-.492-.16-.937-.16-.81 0-1.666.512-2.238 1.582h-.064l-.158-1.39h-1.905v7.926zm8.748-2.876c0 1.837.762 3.068 2.715 3.068a5.63 5.63 0 001.746-.288l-.365-1.71c-.207.08-.492.16-.746.16-.62 0-1.017-.367-1.017-1.262v-3.18h1.89v-1.838h-1.89v-2.11h-1.936l-.27 2.11-1.207.096v1.742h1.08v3.212zm7.864 2.876h2.335v-5.353c.508-.495.873-.767 1.46-.767.667 0 .969.351.969 1.502v4.618h2.333v-4.922c0-1.981-.73-3.196-2.444-3.196-1.064 0-1.858.56-2.525 1.199h-.063l-.16-1.007h-1.904v7.926zm10.73-3.963c0 2.62 1.731 4.155 3.986 4.155.936 0 1.984-.336 2.794-.895l-.778-1.422c-.572.352-1.111.527-1.699.527-1.048 0-1.841-.527-2.048-1.726h4.715c.048-.191.096-.575.096-.99 0-2.158-1.112-3.804-3.35-3.804-1.89 0-3.715 1.582-3.715 4.155zm2.24-.815c.158-1.054.793-1.55 1.523-1.55.937 0 1.318.64 1.318 1.55H52.74zm8.543 4.778h2.334v-4.602c.413-1.07 1.143-1.454 1.73-1.454.334 0 .572.048.858.128l.38-2.03c-.221-.096-.491-.16-.936-.16-.81 0-1.667.512-2.238 1.582h-.064l-.159-1.39h-1.905v7.926zm14.013 0h2.35v-3.531h1.428c2.191 0 4.049-1.087 4.049-3.532 0-2.525-1.794-3.356-4.049-3.356h-3.778v10.42zm2.35-5.401v-3.148h1.285c1.239 0 1.906.4 1.906 1.486 0 1.087-.62 1.662-1.906 1.662h-1.285zm8.391 1.438c0 2.637 1.842 4.155 3.842 4.155 1.985 0 3.826-1.518 3.826-4.155 0-2.636-1.841-4.155-3.826-4.155-2 0-3.842 1.519-3.842 4.155zm2.397 0c0-1.374.477-2.253 1.445-2.253.953 0 1.445.879 1.445 2.253s-.492 2.253-1.445 2.253c-.968 0-1.445-.879-1.445-2.253zm8.975 3.963h2.334v-4.602c.412-1.07 1.143-1.454 1.73-1.454.333 0 .572.048.857.128l.381-2.03c-.222-.096-.492-.16-.936-.16-.81 0-1.667.512-2.239 1.582h-.063l-.159-1.39h-1.905v7.926zm8.748-2.876c0 1.837.762 3.068 2.715 3.068a5.63 5.63 0 001.746-.288l-.365-1.71c-.206.08-.492.16-.746.16-.619 0-1.016-.367-1.016-1.262v-3.18h1.889v-1.838h-1.889v-2.11h-1.937l-.27 2.11-1.207.096v1.742h1.08v3.212zm7.393.671c0 1.342.905 2.397 2.334 2.397.889 0 1.635-.416 2.302-1.007h.048l.174.815h1.905V46.27c0-2.429-1.111-3.58-3.127-3.58-1.239 0-2.366.432-3.366 1.04l.826 1.55c.762-.448 1.428-.72 2.095-.72.842 0 1.191.447 1.239 1.15-3.112.32-4.43 1.231-4.43 2.893zm2.223-.176c0-.607.54-1.086 2.207-1.31v1.39c-.413.416-.762.671-1.302.671-.556 0-.905-.24-.905-.75zm8.649-.08c0 1.598.539 2.653 2.143 2.653.524 0 .921-.08 1.175-.192l-.286-1.742c-.127.032-.191.032-.286.032-.19 0-.413-.16-.413-.655v-8.837h-2.333v8.741z" fill="#ED3F27"/></svg>