<svg width="36" height="36" fill="none" xmlns="http://www.w3.org/2000/svg"><path fill-rule="evenodd" clip-rule="evenodd" d="M29.745 17.288c-3.822-4.463-7.871-6.788-11.73-6.788-3.86 0-7.91 2.325-11.731 6.788a1.084 1.084 0 000 1.462c3.822 4.425 7.87 6.75 11.73 6.75 3.86 0 7.909-2.325 11.73-6.788a1.119 1.119 0 000-1.424zM18.015 24c-3.293 0-6.963-2.137-10.369-6 3.406-3.863 7.076-6 10.368-6 3.292 0 6.963 2.137 10.368 6-3.405 3.863-7.076 6-10.368 6zm0-10.5c-2.498 0-4.542 2.025-4.542 4.5s2.044 4.5 4.541 4.5c2.498 0 4.541-2.025 4.541-4.5s-2.043-4.5-4.54-4.5zm0 7.5c-1.666 0-3.028-1.35-3.028-3s1.362-3 3.027-3 3.027 1.35 3.027 3-1.362 3-3.027 3z" fill="#9496A2"/></svg>