<svg xmlns="http://www.w3.org/2000/svg" width="23" height="15" viewBox="0 0 23 15">
    <g fill="none" fill-rule="evenodd">
        <g fill="#2C2C2C" fill-rule="nonzero">
            <g>
                <path d="M20.455 2.386V1.25h-2.273V.114H4.545V1.25H2.273v1.136H0v7.955h2.273v1.136h2.272v1.137h13.637v-1.137h2.273v-1.136h2.272V2.386h-2.272zM2.273 9.205H1.136V3.523h1.137v5.682zm2.272 1.136H3.41V2.386h1.136v7.955zm12.5 1.136H5.682V8.923C6.564 8.157 7.525 7.5 7.955 7.5c.83 0 4.457 3.557 4.457 3.557l4.633-2.78v3.2zm0-4.526l-4.46 2.676C11.5 8.57 9.097 6.364 7.955 6.364c-.662 0-1.527.522-2.273 1.09V1.25h11.363v5.701zm2.273 3.39h-1.136V2.386h1.136v7.955zm2.273-1.136h-1.136V3.523h1.136v5.682zm-9.66 5.113c0 .314-.253.568-.567.568-.314 0-.569-.254-.569-.568 0-.314.255-.568.569-.568.314 0 .568.254.568.568zm-3.408 0c0 .314-.254.568-.568.568-.315 0-.569-.254-.569-.568 0-.314.254-.568.569-.568.314 0 .568.254.568.568zm6.818 0c0 .314-.254.568-.568.568-.314 0-.568-.254-.568-.568 0-.314.254-.568.568-.568.314 0 .568.254.568.568zM12.5 6.932c1.255 0 2.273-1.017 2.273-2.273 0-1.256-1.018-2.273-2.273-2.273-1.255 0-2.273 1.017-2.273 2.273 0 1.256 1.018 2.273 2.273 2.273zm0-3.41c.626 0 1.136.51 1.136 1.137s-.51 1.136-1.136 1.136c-.626 0-1.136-.509-1.136-1.136 0-.627.51-1.136 1.136-1.136z" transform="translate(-27 -498) translate(27 498)"/>
            </g>
        </g>
    </g>
</svg>
