<svg xmlns="http://www.w3.org/2000/svg" width="27" height="20" viewBox="0 0 27 20">
    <g fill="none" fill-rule="evenodd">
        <g fill="#D4D4D4" fill-rule="nonzero">
            <g>
                <path d="M2.93 0h20.367c1.611 0 2.93 1.319 2.93 2.93v14.14c0 1.611-1.319 2.93-2.93 2.93H2.93C1.32 20 0 18.681 0 17.07V2.93C0 1.32 1.319 0 2.93 0zM1.392 4.982h23.443V2.93c0-.805-.732-1.538-1.538-1.538H2.93c-.805 0-1.538.733-1.538 1.538v2.052zm23.443 3.296H1.392v8.792c0 .879.733 1.538 1.538 1.538h20.367c.806 0 1.538-.66 1.538-1.538V8.278z" transform="translate(-880 -748) translate(880 748)"/>
                <path d="M4.762 13.114c-.366 0-.66-.293-.66-.66 0-.44.294-.732.66-.732h6.227c.366 0 .733.293.733.732 0 .367-.367.66-.733.66H4.762zM4.762 16.264c-.366 0-.66-.367-.66-.733s.294-.732.66-.732h4.322c.367 0 .733.366.733.732s-.366.733-.733.733H4.762z" transform="translate(-880 -748) translate(880 748)"/>
            </g>
        </g>
    </g>
</svg>
