<svg xmlns="http://www.w3.org/2000/svg" width="32" height="56" viewBox="0 0 32 56">
    <g fill="none" fill-rule="evenodd">
        <g fill="#D4D4D4" fill-rule="nonzero" stroke="#D4D4D4" stroke-width=".5">
            <g>
                <path d="M28.29 15.347C25.993 6.017 21.3.459 21.1.223c-.155-.183-.399-.262-.63-.204L2.786 4.047l-.145.05c-.683.39-1.148 1.077-1.26 1.862-.157 1.274.63 2.708 2.305 4.302C2.426 12.995.866 18.1.538 27.023.015 41.963.072 48.303.072 48.368c0 .07.012.139.037.204v.044c.025.055.056.107.095.153h0c.054.052.115.095.182.128h0l11.11 5.098h.056c.031.007.063.007.094 0h.082c.076-.001.151-.019.22-.05h0l17.671-7.776c.224-.1.372-.32.378-.567.025-.854.56-20.982-1.706-30.255zM5.765 9.088c1.463 2.451 2.588 5.093 3.344 7.852-1.12.567-3.06 2.588-3.01 9.815 0 .352.282.638.63.638h0c.348 0 .63-.286.63-.638-.038-6.08 1.335-7.947 2.09-8.521.19.771.366 1.574.517 2.416 1.725 9.515 1.499 24.244 1.322 30.184l-3.93-8.362v-7.195c0-.352-.281-.638-.629-.638s-.63.286-.63.638v7.068l-4.767 4.544c0-2.632.088-8.923.466-19.809.397-11.434 2.897-16.38 3.967-17.992zm.762 34.595l3.98 8.47-8.665-3.977 4.685-4.493zm22.218 1.479l-16.26 7.291c.164-4.328.63-21.383-1.26-32.033-1.26-7.125-3.998-11.644-5.497-13.703l-.214-.293c-.22-.253-.596-.29-.86-.085-.262.206-.322.584-.135.863l.195.267c.107.147.22.3.334.472-.278.363-.528.747-.75 1.147-1.543-1.536-1.713-2.492-1.662-2.95.044-.357.242-.675.541-.868l17.205-3.92c3.155 4.263 5.418 9.132 6.65 14.31 2.09 8.393 1.782 26.57 1.713 29.502h0zM26.03 22.453c-.157-.103-.35-.131-.53-.076l-11.46 3.397c-.315.093-.507.414-.441.74 0 .056 1.152 5.946 1.039 20.12 0 .352.282.637.63.637.082 0 .163-.018.239-.05l11.216-4.609c.233-.096.386-.325.39-.58.089-6.383-.18-12.767-.806-19.12-.026-.185-.126-.351-.277-.459zm-.17 19.152l-9.957 4.092c.05-11.357-.692-17.113-.97-18.852l10.209-3.034c.548 5.914.787 11.854.718 17.794zM20.6 33.811c-.976 1.115-1.67 2.453-2.021 3.9 0 0 0 0 0 0h0c-1.058-.962-1.297-2.88-.58-4.665.371-.978 1.031-1.817 1.89-2.403.693-.507 1.58-.657 2.4-.408h0c-.233 1.325-.816 2.56-1.689 3.576h0zm2.437-3.117c1.084.962 1.336 2.887.63 4.69-.373.98-1.032 1.82-1.889 2.41-.484.331-1.053.515-1.637.53-.27-.002-.539-.05-.794-.141 0 0 0 0 0 0 .27-1.427.923-2.75 1.89-3.824.876-1.04 1.493-2.277 1.8-3.608h0v-.057z" transform="translate(-586 -942) translate(587 943)"/>
            </g>
        </g>
    </g>
</svg>
