<svg xmlns="http://www.w3.org/2000/svg" width="16" height="29" viewBox="0 0 16 29">
    <g fill="none" fill-rule="evenodd">
        <g fill="#D4D4D4" fill-rule="nonzero" stroke="#D4D4D4" stroke-width=".2">
            <g>
                <path d="M14.645 7.673C13.496 3.008 11.15.23 11.05.111c-.077-.091-.199-.13-.314-.102L1.893 2.023l-.073.026c-.341.194-.574.538-.63.93-.078.638.316 1.355 1.153 2.151C1.713 6.498.933 9.05.77 13.511c-.262 7.47-.233 10.64-.233 10.673 0 .035.006.07.019.102v.022c.012.028.028.053.047.077h0c.027.025.058.047.091.063h0l5.555 2.55h.028c.016.003.032.003.047 0h.041c.038-.001.076-.01.11-.026h0l8.836-3.888c.112-.049.185-.16.189-.283.012-.427.28-10.49-.854-15.128zM3.382 4.544C4.113 5.77 4.676 7.091 5.054 8.47c-.56.284-1.53 1.294-1.505 4.908 0 .176.141.318.315.318h0c.174 0 .315-.142.315-.318-.019-3.04.667-3.974 1.045-4.261.095.386.183.787.258 1.208.863 4.758.75 12.122.662 15.092l-1.965-4.18v-3.599c0-.176-.141-.318-.315-.318-.174 0-.315.142-.315.318v3.534l-2.383 2.272c0-1.316.044-4.46.233-9.904.198-5.717 1.448-8.19 1.983-8.996zm.381 17.298l1.99 4.235-4.332-1.989 2.342-2.246zm11.109.739l-8.13 3.645c.082-2.163.315-10.69-.63-16.016-.63-3.563-2-5.822-2.749-6.851l-.107-.147c-.11-.127-.297-.145-.429-.042-.132.103-.162.291-.068.43l.097.135c.054.073.11.15.167.235-.138.182-.264.374-.374.574-.772-.768-.857-1.246-.832-1.475.022-.178.122-.337.271-.434L10.69.675c1.578 2.131 2.71 4.566 3.326 7.155 1.045 4.196.89 13.285.856 14.75h0zm-1.357-11.354c-.078-.052-.175-.066-.265-.039l-5.73 1.699c-.158.046-.253.207-.22.37 0 .028.576 2.973.519 10.06 0 .176.14.319.315.319.04 0 .081-.01.12-.026l5.607-2.304c.117-.048.194-.162.195-.29.045-3.192-.09-6.384-.403-9.56-.012-.093-.063-.176-.138-.23zm-.085 9.576l-4.978 2.046c.025-5.68-.347-8.557-.485-9.427l5.104-1.517c.274 2.958.394 5.928.359 8.898zm-2.63-3.898c-.488.558-.834 1.227-1.01 1.95 0 0 0 0 0 0h0c-.529-.48-.649-1.44-.29-2.332.186-.49.516-.909.945-1.201.347-.254.79-.33 1.2-.204h0c-.117.662-.408 1.28-.844 1.787h0zm1.22-1.558c.54.481.667 1.444.314 2.345-.186.49-.516.91-.944 1.205-.243.166-.527.258-.82.265-.134-.001-.268-.025-.396-.07 0 0 0 0 0 0 .135-.714.462-1.376.945-1.913.438-.52.747-1.138.9-1.803h0v-.029z" transform="translate(-885 -584) translate(885 585)"/>
            </g>
        </g>
    </g>
</svg>
