<svg xmlns="http://www.w3.org/2000/svg" width="75" height="75" viewBox="0 0 75 75">
    <g fill="none" fill-rule="evenodd">
        <g fill-rule="nonzero">
            <g>
                <g>
                    <g>
                        <path fill="#FAAF24" d="M63.587.06h-52.25c-.464 0-.907.19-1.228.524-.32.335-.49.786-.471 1.249.062 1.46.16 2.9.282 4.323H1.758c-.464 0-.908.19-1.228.526-.321.335-.49.787-.47 1.25.483 10.552 2.902 19.1 6.815 25.137 3.914 6.038 9.48 9.568 15.78 9.577h.102c2.109 2.462 4.425 4.427 6.91 5.773v10.856h-9.62c-3.324 0-6.054 2.73-6.054 6.055v6.136H10.47c-.614-.008-1.184.314-1.493.843-.31.53-.31 1.185 0 1.715.309.53.88.851 1.493.843h53.988c.614.008 1.184-.314 1.493-.843.31-.53.31-1.185 0-1.715-.309-.53-.88-.851-1.493-.843h-3.524V65.33c0-3.324-2.73-6.055-6.055-6.055h-9.62V48.42c2.485-1.346 4.8-3.313 6.908-5.775h.102c6.299-.01 11.866-3.54 15.779-9.578 3.913-6.039 6.334-14.585 6.817-25.137.021-.463-.148-.916-.469-1.252-.32-.336-.765-.526-1.23-.526h-8.163c.121-1.422.22-2.86.282-4.32.02-.463-.15-.914-.47-1.249-.321-.335-.765-.524-1.228-.524V.06zm-50.384 3.4h48.521c-.756 12.31-3.694 23.196-7.997 30.943-4.515 8.126-10.296 12.67-16.263 12.679-5.967-.01-11.748-4.552-16.262-12.678-4.304-7.747-7.244-18.633-8-30.944zm19.866 46.371c1.423.419 2.889.648 4.393.648h.01c1.502 0 2.967-.228 4.389-.646v9.437H33.07l-.001-9.439z" transform="translate(-598 -447) translate(314 419) translate(284 28)"/>
                        <path fill="#000" d="M63.587.06h-52.25c-.464 0-.907.19-1.228.524-.32.335-.49.786-.471 1.249.062 1.46.16 2.9.282 4.323H1.758c-.464 0-.908.19-1.228.526-.321.335-.49.787-.47 1.25.483 10.552 2.902 19.1 6.815 25.137 3.914 6.038 9.48 9.568 15.78 9.577h.102c2.109 2.462 4.425 4.427 6.91 5.773v10.856h-9.62c-3.324 0-6.054 2.73-6.054 6.055v6.136H10.47c-.614-.008-1.184.314-1.493.843-.31.53-.31 1.185 0 1.715.309.53.88.851 1.493.843h53.988c.614.008 1.184-.314 1.493-.843.31-.53.31-1.185 0-1.715-.309-.53-.88-.851-1.493-.843h-3.524V65.33c0-3.324-2.73-6.055-6.055-6.055h-9.62V48.42c2.485-1.346 4.8-3.313 6.908-5.775h.102c6.299-.01 11.866-3.54 15.779-9.578 3.913-6.039 6.334-14.585 6.817-25.137.021-.463-.148-.916-.469-1.252-.32-.336-.765-.526-1.23-.526h-8.163c.121-1.422.22-2.86.282-4.32.02-.463-.15-.914-.47-1.249-.321-.335-.765-.524-1.228-.524V.06zm-50.384 3.4h48.521c-.756 12.31-3.694 23.196-7.997 30.943-4.515 8.126-10.296 12.67-16.263 12.679-5.967-.01-11.748-4.552-16.262-12.678-4.304-7.747-7.244-18.633-8-30.944zM3.63 9.553h6.636c1.248 10.337 4.052 19.468 7.96 26.5.566 1.019 1.159 1.992 1.774 2.924-3.952-.794-7.43-3.382-10.268-7.76C6.488 26.21 4.283 18.79 3.63 9.553zm61.025 0h6.645c-.651 9.239-2.857 16.657-6.102 21.665-2.84 4.383-6.323 6.97-10.279 7.762.616-.933 1.211-1.907 1.778-2.927 3.907-7.032 6.71-16.164 7.958-26.5zM33.07 49.831c1.423.419 2.889.648 4.393.648h.01c1.502 0 2.967-.228 4.389-.646v9.437H33.07l-.001-9.439zm-13.02 12.84h34.83c1.5 0 2.655 1.155 2.655 2.654v6.137H17.393v-6.137c0-1.5 1.155-2.655 2.655-2.655z" transform="translate(-598 -447) translate(314 419) translate(284 28)"/>
                    </g>
                    <g fill="#000" stroke="#000" stroke-width="1.307">
                        <path d="M17.025 1.587c-2.091-1.705-4.512-2.036-7-.994-2.135.9-4.248 2.793-6.14 5.492C1.99 8.784.867 11.483.647 13.945c-.264 2.864.727 5.279 2.818 6.96 1.299 1.065 2.73 1.586 4.204 1.586 2.972 0 6.141-2.083 8.937-6.06 1.893-2.7 3.015-5.422 3.235-7.86.265-2.865-.726-5.28-2.817-6.984zM2.673 14.157c.177-2.035 1.167-4.379 2.84-6.746 0 0 0 0 0 0 1.673-2.368 3.5-4.025 5.26-4.782.705-.284 1.387-.45 2.026-.45.814 0 1.607.237 2.333.686l-1.475.853c-2.575 1.491-4.27 4.356-4.446 7.48-.132 2.368-1.43 4.546-3.39 5.682l-2.18 1.255c-.77-1.09-1.122-2.415-.968-3.977zm15.144-5.8c-.176 2.037-1.166 4.38-2.84 6.748-1.232 1.775-5.458 7.054-9.64 4.521l1.475-.852c2.575-1.491 4.27-4.356 4.446-7.48.132-2.368 1.43-4.546 3.39-5.683l2.179-1.254c.792 1.112 1.144 2.438.99 4z" transform="translate(-598 -447) translate(314 419) translate(284 28) translate(28.087 11.022)"/>
                    </g>
                </g>
            </g>
        </g>
    </g>
</svg>
