<svg xmlns="http://www.w3.org/2000/svg" width="18" height="18" viewBox="0 0 18 18">
    <g fill="none" fill-rule="evenodd">
        <g fill-rule="nonzero" stroke="#2C2C2C" stroke-width="2">
            <g>
                <g>
                    <path d="M2.396 8.938h3.833c.46 0 .833-.374.833-.834V2.396c0-.46-.373-.833-.833-.833H2.396c-.46 0-.833.373-.833.833v5.708c0 .46.373.834.833.834zM2.396 16.438h3.833c.46 0 .833-.374.833-.834v-1.958c0-.46-.373-.834-.833-.834H2.396c-.46 0-.833.374-.833.834v1.958c0 .46.373.834.833.834zM11.77 16.438h3.834c.46 0 .834-.374.834-.834V9.896c0-.46-.374-.834-.834-.834h-3.833c-.46 0-.834.374-.834.834v5.708c0 .46.374.834.834.834zM10.938 2.396v1.958c0 .46.373.833.833.833h3.833c.46 0 .834-.373.834-.833V2.396c0-.46-.374-.833-.834-.833h-3.833c-.46 0-.834.373-.834.833z" transform="translate(-36 -132) translate(36 132)"/>
                </g>
            </g>
        </g>
    </g>
</svg>
