<svg xmlns="http://www.w3.org/2000/svg" xmlns:xlink="http://www.w3.org/1999/xlink" width="960" height="1400" viewBox="0 0 960 1400">
    <defs>
        <linearGradient id="ujhlqhy2kb" x1="73.51%" x2="45.963%" y1="0%" y2="52.294%">
            <stop offset="0%" stop-color="#F7974F"/>
            <stop offset="100%" stop-color="#ED3F27"/>
        </linearGradient>
        <path id="chdpdu7bza" d="M0 0H960V1400H0z"/>
    </defs>
    <g fill="none" fill-rule="evenodd">
        <g>
            <mask id="s6vfxd287c" fill="#fff">
                <use xlink:href="#chdpdu7bza"/>
            </mask>
            <use fill="url(#ujhlqhy2kb)" xlink:href="#chdpdu7bza"/>
            <g fill="#FFF" mask="url(#s6vfxd287c)" opacity=".109">
                <g>
                    <path d="M1524.123 3991.242c-580.563 0-1052.861-470.36-1052.861-1048.478h204.342c0 465.915 380.633 844.997 848.52 844.997 467.938 0 848.571-379.082 848.571-844.997 0-402.517-432.06-619.128-889.545-848.502-497.46-249.356-1011.888-507.239-1011.888-1044.921C471.262 471.223 943.56.862 1524.123.862c580.616 0 1052.914 470.361 1052.914 1048.479h-204.342c0-465.915-380.633-845.05-848.572-845.05-467.886 0-848.519 379.135-848.519 845.05 0 412.35 436.84 631.367 899.474 863.252 492.575 246.898 1001.96 502.27 1001.96 1030.17 0 578.118-472.3 1048.48-1052.915 1048.48" transform="translate(-1047 -1298)"/>
                    <path d="M1857.107 2956.861c-29.785-212.792-329.364-366.894-676.116-545.372C655.007 2140.791.43 1803.922.43 1049.314H204.77c0 630.688 568.481 923.304 1070.039 1181.396 380.686 195.896 740.15 380.965 784.695 697.957l-202.398 28.194zM3047.807 2942.764h-204.342c0-630.688-568.481-923.251-1070.039-1181.395-380.633-195.897-740.15-380.966-784.643-697.957l202.347-28.142c29.837 212.74 329.363 366.841 676.115 545.32 525.984 270.698 1180.562 607.619 1180.562 1362.174" transform="translate(-1047 -1298)"/>
                </g>
            </g>
            <g mask="url(#s6vfxd287c)">
                <g>
                    <g fill="#FFF">
                        <path d="M35.2 189.138h-9.287C11.671 189.138.077 177.6.077 163.414h11.035c0 8.126 6.64 14.739 14.801 14.739h9.288v10.985z" transform="translate(161 592)"/>
                        <path d="M0.08 164.457L138.32 164.457 138.32 153.469 0.08 153.469z" transform="translate(161 592)"/>
                        <path d="M82.357 215.581c-31.35 0-56.855-25.4-56.855-56.618h11.035c0 25.16 20.554 45.63 45.82 45.63 25.268 0 45.823-20.47 45.823-45.63 0-21.736-23.332-33.433-48.036-45.819-26.863-13.465-54.642-27.39-54.642-56.426C25.502 25.5 51.006.101 82.357.101c31.353 0 56.857 25.4 56.857 56.617H128.18c0-25.159-20.555-45.632-45.823-45.632-25.266 0-45.82 20.473-45.82 45.632 0 22.267 23.589 34.094 48.571 46.616 26.6 13.333 54.106 27.123 54.106 55.63 0 31.218-25.504 56.617-56.857 56.617" transform="translate(161 592)"/>
                        <path d="M100.338 159.725c-1.609-11.491-17.786-19.813-36.51-29.45C35.424 115.656.078 97.464.078 56.716h11.034c0 34.057 30.698 49.858 57.782 63.795 20.557 10.579 39.968 20.572 42.373 37.69l-10.93 1.523zM164.636 158.963H153.6c0-34.057-30.698-49.855-57.782-63.795-20.554-10.579-39.968-20.572-42.37-37.69l10.926-1.52c1.611 11.489 17.786 19.81 36.51 29.448 28.403 14.618 63.75 32.811 63.75 73.557M164.636 52.259H153.6c0-8.127-6.638-14.74-14.799-14.74h-9.29V26.534h9.29c14.243 0 25.834 11.539 25.834 25.725" transform="translate(161 592)"/>
                        <path d="M26.509 62.212L164.636 62.212 164.636 51.224 26.509 51.224z" transform="translate(161 592)"/>
                    </g>
                    <text font-family="SourceSansPro-Bold, Source Sans Pro" font-size="156.816" font-weight="bold" letter-spacing="6.161" transform="translate(161 592)">
                        <tspan x="194.568" y="167.068" fill="#FFF">SIPPY</tspan>
                    </text>
                </g>
            </g>
        </g>
    </g>
</svg>
