<svg xmlns="http://www.w3.org/2000/svg" width="59" height="73" viewBox="0 0 59 73">
    <g fill="none" fill-rule="evenodd">
        <g>
            <g>
                <g>
                    <g fill-rule="nonzero" stroke="#1D1D1D">
                        <g>
                            <path fill="#000" stroke-width=".643" d="M57.363 62.158h-2.47c-1.975 0-3.598-1.627-3.598-3.607v-1.909c-1.623-.353-2.822-1.768-2.822-3.536v-2.05c-1.834-.142-3.246-1.697-3.246-3.607V25.316c0-.425.353-.778.776-.778.424 0 .777.353.777.778V47.52c0 1.131.917 2.05 2.046 2.05h1.2v3.607c0 1.132.917 2.05 2.045 2.05h.777v3.324c0 1.132.917 2.051 2.046 2.051h.917V21.356c0-.92-.141-1.768-.423-2.546-.141-.424-.283-.778-.424-1.131-.846-1.91-2.399-3.324-4.304-4.102-2.046-.778-4.374-.707-6.35.212l-.07.071c-3.317 1.485-7.127.212-9.032-2.97-.988-1.626-1.764-3.324-2.328-4.95-.565-1.485-1.482-2.758-2.752-3.465-2.187-1.344-4.727-1.202-7.479.354 0 0-2.328 1.485-2.54 3.818 1.2-.283 3.316-.353 4.586 1.414.847 1.132.917 2.546.282 3.819-.917 1.768-3.034 2.829-5.715 2.829H17.57c-1.059 0-2.893-.354-3.74-.849h0c-2.187-.92-4.657-.92-6.773 0-2.188.99-3.74 2.687-4.516 4.95v.07c-.282.779-.353 1.627-.353 2.476v39.246h.918c1.128 0 2.046-.92 2.046-2.05v-3.324h.776c1.129 0 2.046-.92 2.046-2.05V49.57h1.2c1.128 0 2.046-.92 2.046-2.051V25.599c0-.425.352-.778.776-.778.423 0 .776.353.776.778V47.52c0 1.839-1.411 3.394-3.246 3.606v2.051c0 1.697-1.2 3.182-2.822 3.536v1.91c0 1.98-1.623 3.606-3.598 3.606H.494V21.356c0-1.061.141-2.051.423-2.97v-.071c.847-2.616 2.823-4.809 5.363-5.87 2.399-1.06 5.08-1.13 7.479-.211h0l.494.212s0 0 0 0h0l-.212.424.212-.424s1.34.636 3.104.636h1.694c2.116 0 3.74-.778 4.374-1.98.353-.707.282-1.556-.141-2.192-1.2-1.556-3.74-.566-3.81-.566l-.917.354-.141-.99c-.565-3.89 3.104-6.152 3.245-6.223C26.036-.849 29.07 0 30.834 1.131c1.481.92 2.68 2.475 3.386 4.243.565 1.556 1.341 3.112 2.258 4.667 1.482 2.475 4.516 3.465 7.056 2.334l.07-.07c2.4-1.061 5.151-1.203 7.55-.284 2.329.92 4.163 2.617 5.221 4.88.212.424.353.848.494 1.273.353.99.494 1.98.494 3.04v40.944h0z" transform="translate(-607 -571) translate(314 542) translate(286 28) translate(7.429 2.143) translate(.136)"/>
                            <path fill="#000" stroke-width=".643" d="M38.242 53.46l-.212-.778c-1.128-3.677-2.822-5.87-4.162-7-1.13-.99-2.823-.99-3.881 0l-.07.07c-.706.566-1.765.566-2.47 0l-.07-.07c-1.06-.99-2.752-1.061-3.881 0-1.27 1.202-3.034 3.323-4.163 7l-.212.778-5.574-2.263.353-.707s.564-1.344 1.058-3.465c.847-3.606.706-7.496-.353-11.314-.14-.425.142-.849.494-.92.424-.141.847.142.918.495 1.199 4.031 1.27 8.203.352 12.093-.282 1.343-.635 2.333-.917 2.97l2.61 1.06c1.2-3.535 2.964-5.728 4.305-6.93 1.693-1.555 4.374-1.555 5.927 0 .14.142.352.142.564 0 1.623-1.555 4.233-1.555 5.927 0 1.34 1.202 3.104 3.395 4.304 6.93l2.61-1.06c-.211-.566-.493-1.415-.776-2.475-1.058-4.173-.917-8.628.424-12.8.14-.424.564-.636.987-.495.424.142.636.566.494.99-1.27 3.96-1.34 8.062-.352 11.951.494 1.839.987 2.97.987 2.97l.353.707-5.574 2.263z" transform="translate(-607 -571) translate(314 542) translate(286 28) translate(7.429 2.143) translate(.136)"/>
                            <path fill="#000" stroke-width=".643" d="M28.717 39.317c-6.068 0-11.007-4.95-11.007-11.031 0-6.082 4.939-11.032 11.007-11.032s11.007 4.95 11.007 11.032c0 6.081-4.94 11.031-11.007 11.031zm0-20.507c-5.221 0-9.455 4.243-9.455 9.476 0 5.233 4.234 9.475 9.455 9.475s9.455-4.242 9.455-9.475-4.234-9.476-9.455-9.476z" transform="translate(-607 -571) translate(314 542) translate(286 28) translate(7.429 2.143) translate(.136)"/>
                            <path fill="#000" stroke-width=".643" d="M25.471 38.61c-.423 0-.776-.354-.776-.778V18.527c0-.424.353-.778.776-.778.424 0 .776.354.776.778v19.305c0 .424-.352.778-.776.778z" transform="translate(-607 -571) translate(314 542) translate(286 28) translate(7.429 2.143) translate(.136)"/>
                            <path fill="#000" stroke-width=".643" d="M38.383 26.235H25.471c-.423 0-.776-.354-.776-.778 0-.424.353-.778.776-.778h12.912c.424 0 .776.354.776.778 0 .424-.352.778-.776.778zM38.383 32.034H25.471c-.423 0-.776-.354-.776-.778 0-.425.353-.778.776-.778h12.912c.424 0 .776.353.776.778 0 .495-.352.778-.776.778zM43.11 59.117c-.282 0-.634-.212-.705-.495l-2.399-6.718c-.141-.424.07-.848.494-.99.423-.141.847.071.988.495l2.399 6.718c.14.424-.07.849-.494.99h-.282zM14.182 59.117c-.07 0-.141 0-.282-.07-.424-.142-.635-.566-.494-.99l2.399-6.718c.141-.425.564-.637.988-.495.423.141.635.565.494.99l-2.4 6.717c-.07.354-.352.566-.705.566z" transform="translate(-607 -571) translate(314 542) translate(286 28) translate(7.429 2.143) translate(.136)"/>
                            <path fill="#FAAF24" stroke-width=".643" d="M28.717 70.714h0c-9.878-.07-17.71-4.384-17.992-4.525l-.424-.213v-6.293l3.881-2.192.353.212c3.457 1.768 7.761 2.616 10.795 3.111h0c2.187.354 4.445.354 6.633 0 3.034-.424 7.338-1.343 10.795-3.111l.353-.212 3.88 2.192v6.293l-.423.213c-.212.141-8.044 4.455-17.851 4.525h0z" transform="translate(-607 -571) translate(314 542) translate(286 28) translate(7.429 2.143) translate(.136)"/>
                            <path fill="#000" stroke-width=".643" d="M8.608 51.126c-.423 0-.776-.353-.776-.777v-9.264c0-.424.353-.778.776-.778.423 0 .776.354.776.778v9.264c0 .424-.353.777-.776.777zM52.071 56.784c-.423 0-.776-.354-.776-.778V45.68c0-.424.353-.777.776-.777.424 0 .777.353.777.777v10.254c-.071.495-.353.849-.777.849zM49.25 51.126c-.424 0-.777-.353-.777-.777v-9.264c0-.424.353-.778.776-.778.423 0 .776.354.776.778v9.264c0 .424-.353.777-.776.777zM28.646 59.541c-.635 0-1.27-.212-1.764-.565-.846-.637-1.34-1.556-1.27-2.617 0-.424.353-.778.777-.707.423 0 .776.354.705.778 0 .495.212.99.635 1.273.494.353 1.2.353 1.693 0l.071-.07c.423-.284.706-.779.635-1.344 0-.425.282-.778.706-.778.423 0 .776.283.776.707.07 1.06-.494 2.05-1.34 2.687l.07.07c-.494.354-1.13.566-1.694.566z" transform="translate(-607 -571) translate(314 542) translate(286 28) translate(7.429 2.143) translate(.136)"/>
                            <path fill="#000" stroke-width=".643" d="M32.81 59.33c-.424 0-.777-.071-1.13-.284-.776-.424-1.27-1.131-1.34-1.98l-.918-9.263c-.07-.424.283-.778.706-.849.423-.07.776.283.847.707l.917 9.264c0 .354.212.636.564.778.353.212.847.141 1.13-.142l.07-.07c.282-.212.353-.566.282-.92l-1.764-9.122c-.07-.424.212-.848.635-.919.424-.07.847.212.917.636l1.764 9.123c.142.848-.14 1.767-.776 2.333l-.07.07c-.635.354-1.2.637-1.835.637zM24.554 59.33c-.635 0-1.27-.213-1.693-.637l-.07-.07c-.636-.567-.918-1.486-.777-2.334l1.764-9.123c.07-.424.494-.707.917-.636.423.07.706.495.635.92l-1.764 9.121c-.07.354.07.708.282.92l.071.07c.282.283.776.354 1.129.142.282-.142.494-.424.564-.778l.918-9.264c.07-.424.423-.707.846-.707.424.071.706.425.706.849l-.917 9.263c-.07.849-.565 1.627-1.341 1.98-.494.142-.917.283-1.27.283z" transform="translate(-607 -571) translate(314 542) translate(286 28) translate(7.429 2.143) translate(.136)"/>
                            <path fill="#000" stroke-width=".5" d="M25.683 4.809L24.907 4.809 24.907 3.253 26.459 3.182 26.459 4.738z" transform="translate(-607 -571) translate(314 542) translate(286 28) translate(7.429 2.143) translate(.136)"/>
                        </g>
                    </g>
                    <g fill="#000" fill-rule="nonzero" stroke="#000">
                        <g>
                            <path stroke-width=".643" d="M57.363 62.158h-2.47c-1.975 0-3.598-1.627-3.598-3.607v-1.909c-1.623-.353-2.822-1.768-2.822-3.536v-2.05c-1.834-.142-3.246-1.697-3.246-3.607V25.316c0-.425.353-.778.776-.778.424 0 .777.353.777.778V47.52c0 1.131.917 2.05 2.046 2.05h1.2v3.607c0 1.132.917 2.05 2.045 2.05h.777v3.324c0 1.132.917 2.051 2.046 2.051h.917V21.356c0-.92-.141-1.768-.423-2.546-.141-.424-.283-.778-.424-1.131-.846-1.91-2.399-3.324-4.304-4.102-2.046-.778-4.374-.707-6.35.212l-.07.071c-3.317 1.485-7.127.212-9.032-2.97-.988-1.626-1.764-3.324-2.328-4.95-.565-1.485-1.482-2.758-2.752-3.465-2.187-1.344-4.727-1.202-7.479.354 0 0-2.328 1.485-2.54 3.818 1.2-.283 3.316-.353 4.586 1.414.847 1.132.917 2.546.282 3.819-.917 1.768-3.034 2.829-5.715 2.829H17.57c-1.059 0-2.893-.354-3.74-.849h0c-2.187-.92-4.657-.92-6.773 0-2.188.99-3.74 2.687-4.516 4.95v.07c-.282.779-.353 1.627-.353 2.476v39.246h.918c1.128 0 2.046-.92 2.046-2.05v-3.324h.776c1.129 0 2.046-.92 2.046-2.05V49.57h1.2c1.128 0 2.046-.92 2.046-2.051V25.599c0-.425.352-.778.776-.778.423 0 .776.353.776.778V47.52c0 1.839-1.411 3.394-3.246 3.606v2.051c0 1.697-1.2 3.182-2.822 3.536v1.91c0 1.98-1.623 3.606-3.598 3.606H.494V21.356c0-1.061.141-2.051.423-2.97v-.071c.847-2.616 2.823-4.809 5.363-5.87 2.399-1.06 5.08-1.13 7.479-.211h0l.494.212s0 0 0 0h0l-.212.424.212-.424s1.34.636 3.104.636h1.694c2.116 0 3.74-.778 4.374-1.98.353-.707.282-1.556-.141-2.192-1.2-1.556-3.74-.566-3.81-.566l-.917.354-.141-.99c-.565-3.89 3.104-6.152 3.245-6.223C26.036-.849 29.07 0 30.834 1.131c1.481.92 2.68 2.475 3.386 4.243.565 1.556 1.341 3.112 2.258 4.667 1.482 2.475 4.516 3.465 7.056 2.334l.07-.07c2.4-1.061 5.151-1.203 7.55-.284 2.329.92 4.163 2.617 5.221 4.88.212.424.353.848.494 1.273.353.99.494 1.98.494 3.04v40.944h0z" transform="translate(-607 -571) translate(314 542) translate(286 28) translate(7.429 2.143) translate(.136)"/>
                            <path stroke-width=".643" d="M38.242 53.46l-.212-.778c-1.128-3.677-2.822-5.87-4.162-7-1.13-.99-2.823-.99-3.881 0l-.07.07c-.706.566-1.765.566-2.47 0l-.07-.07c-1.06-.99-2.752-1.061-3.881 0-1.27 1.202-3.034 3.323-4.163 7l-.212.778-5.574-2.263.353-.707s.564-1.344 1.058-3.465c.847-3.606.706-7.496-.353-11.314-.14-.425.142-.849.494-.92.424-.141.847.142.918.495 1.199 4.031 1.27 8.203.352 12.093-.282 1.343-.635 2.333-.917 2.97l2.61 1.06c1.2-3.535 2.964-5.728 4.305-6.93 1.693-1.555 4.374-1.555 5.927 0 .14.142.352.142.564 0 1.623-1.555 4.233-1.555 5.927 0 1.34 1.202 3.104 3.395 4.304 6.93l2.61-1.06c-.211-.566-.493-1.415-.776-2.475-1.058-4.173-.917-8.628.424-12.8.14-.424.564-.636.987-.495.424.142.636.566.494.99-1.27 3.96-1.34 8.062-.352 11.951.494 1.839.987 2.97.987 2.97l.353.707-5.574 2.263z" transform="translate(-607 -571) translate(314 542) translate(286 28) translate(7.429 2.143) translate(.136)"/>
                            <path stroke-width=".643" d="M28.717 39.317c-6.068 0-11.007-4.95-11.007-11.031 0-6.082 4.939-11.032 11.007-11.032s11.007 4.95 11.007 11.032c0 6.081-4.94 11.031-11.007 11.031zm0-20.507c-5.221 0-9.455 4.243-9.455 9.476 0 5.233 4.234 9.475 9.455 9.475s9.455-4.242 9.455-9.475-4.234-9.476-9.455-9.476z" transform="translate(-607 -571) translate(314 542) translate(286 28) translate(7.429 2.143) translate(.136)"/>
                            <path stroke-width=".643" d="M28.717 39.317c-6.068 0-11.007-4.95-11.007-11.031 0-6.082 4.939-11.032 11.007-11.032s11.007 4.95 11.007 11.032c0 6.081-4.94 11.031-11.007 11.031zm0-20.507c-5.221 0-9.455 4.243-9.455 9.476 0 5.233 4.234 9.475 9.455 9.475s9.455-4.242 9.455-9.475-4.234-9.476-9.455-9.476z" transform="translate(-607 -571) translate(314 542) translate(286 28) translate(7.429 2.143) translate(.136)"/>
                            <path stroke-width=".643" d="M25.471 38.61c-.423 0-.776-.354-.776-.778V18.527c0-.424.353-.778.776-.778.424 0 .776.354.776.778v19.305c0 .424-.352.778-.776.778z" transform="translate(-607 -571) translate(314 542) translate(286 28) translate(7.429 2.143) translate(.136)"/>
                            <path stroke-width=".643" d="M38.383 26.235H25.471c-.423 0-.776-.354-.776-.778 0-.424.353-.778.776-.778h12.912c.424 0 .776.354.776.778 0 .424-.352.778-.776.778zM38.383 32.034H25.471c-.423 0-.776-.354-.776-.778 0-.425.353-.778.776-.778h12.912c.424 0 .776.353.776.778 0 .495-.352.778-.776.778zM43.11 59.117c-.282 0-.634-.212-.705-.495l-2.399-6.718c-.141-.424.07-.848.494-.99.423-.141.847.071.988.495l2.399 6.718c.14.424-.07.849-.494.99h-.282zM14.182 59.117c-.07 0-.141 0-.282-.07-.424-.142-.635-.566-.494-.99l2.399-6.718c.141-.425.564-.637.988-.495.423.141.635.565.494.99l-2.4 6.717c-.07.354-.352.566-.705.566z" transform="translate(-607 -571) translate(314 542) translate(286 28) translate(7.429 2.143) translate(.136)"/>
                            <path stroke-width=".643" d="M28.717 70.714h0c-9.878-.07-17.71-4.384-17.992-4.525l-.424-.213v-6.293l3.881-2.192.353.212c3.457 1.768 7.761 2.616 10.795 3.111h0c2.187.354 4.445.354 6.633 0 3.034-.424 7.338-1.343 10.795-3.111l.353-.212 3.88 2.192v6.293l-.423.213c-.212.141-8.044 4.455-17.851 4.525h0zm-16.863-5.657c1.693.849 8.608 4.102 16.792 4.172 8.256-.07 15.17-3.253 16.864-4.172v-4.455l-2.4-1.343c-3.527 1.697-7.831 2.616-10.865 3.04-2.329.354-4.728.354-7.127 0-3.034-.424-7.338-1.343-10.865-3.04l-2.4 1.343v4.455zM8.608 51.126c-.423 0-.776-.353-.776-.777v-9.264c0-.424.353-.778.776-.778.423 0 .776.354.776.778v9.264c0 .424-.353.777-.776.777zM52.071 56.784c-.423 0-.776-.354-.776-.778V45.68c0-.424.353-.777.776-.777.424 0 .777.353.777.777v10.254c-.071.495-.353.849-.777.849zM49.25 51.126c-.424 0-.777-.353-.777-.777v-9.264c0-.424.353-.778.776-.778.423 0 .776.354.776.778v9.264c0 .424-.353.777-.776.777z" transform="translate(-607 -571) translate(314 542) translate(286 28) translate(7.429 2.143) translate(.136)"/>
                            <path stroke-width=".643" d="M28.646 59.541c-.635 0-1.27-.212-1.764-.565-.846-.637-1.34-1.556-1.27-2.617 0-.424.353-.778.777-.707.423 0 .776.354.705.778 0 .495.212.99.635 1.273.494.353 1.2.353 1.693 0l.071-.07c.423-.284.706-.779.635-1.344 0-.425.282-.778.706-.778.423 0 .776.283.776.707.07 1.06-.494 2.05-1.34 2.687l.07.07c-.494.354-1.13.566-1.694.566z" transform="translate(-607 -571) translate(314 542) translate(286 28) translate(7.429 2.143) translate(.136)"/>
                            <path stroke-width=".643" d="M32.81 59.33c-.424 0-.777-.071-1.13-.284-.776-.424-1.27-1.131-1.34-1.98l-.918-9.263c-.07-.424.283-.778.706-.849.423-.07.776.283.847.707l.917 9.264c0 .354.212.636.564.778.353.212.847.141 1.13-.142l.07-.07c.282-.212.353-.566.282-.92l-1.764-9.122c-.07-.424.212-.848.635-.919.424-.07.847.212.917.636l1.764 9.123c.142.848-.14 1.767-.776 2.333l-.07.07c-.635.354-1.2.637-1.835.637zM24.554 59.33c-.635 0-1.27-.213-1.693-.637l-.07-.07c-.636-.567-.918-1.486-.777-2.334l1.764-9.123c.07-.424.494-.707.917-.636.423.07.706.495.635.92l-1.764 9.121c-.07.354.07.708.282.92l.071.07c.282.283.776.354 1.129.142.282-.142.494-.424.564-.778l.918-9.264c.07-.424.423-.707.846-.707.424.071.706.425.706.849l-.917 9.263c-.07.849-.565 1.627-1.341 1.98-.494.142-.917.283-1.27.283z" transform="translate(-607 -571) translate(314 542) translate(286 28) translate(7.429 2.143) translate(.136)"/>
                            <path stroke-width=".5" d="M25.683 4.809L24.907 4.809 24.907 3.253 26.459 3.182 26.459 4.738z" transform="translate(-607 -571) translate(314 542) translate(286 28) translate(7.429 2.143) translate(.136)"/>
                        </g>
                    </g>
                    <path d="M0 0H70.714V75H0z" transform="translate(-607 -571) translate(314 542) translate(286 28)"/>
                </g>
            </g>
        </g>
    </g>
</svg>
