<svg xmlns="http://www.w3.org/2000/svg" width="31" height="18" viewBox="0 0 31 18">
    <g fill="none" fill-rule="evenodd">
        <g>
            <g>
                <g>
                    <g>
                        <path fill="#FF5F00" d="M11.562 16L19.562 16 19.562 2 11.562 2z" transform="translate(-1444 -1099) translate(313 1085) translate(1131 14)"/>
                        <path fill="#EB001B" d="M12.02 9c0-2.871 1.385-5.428 3.542-7.076C13.985.72 11.995 0 9.832 0 4.712 0 .562 4.03.562 9s4.15 9 9.27 9c2.163 0 4.153-.719 5.73-1.924C13.405 14.428 12.02 11.87 12.02 9" transform="translate(-1444 -1099) translate(313 1085) translate(1131 14)"/>
                        <path fill="#F79E1B" d="M30.272 14.577v-.35h-.094l-.108.24-.108-.24h-.094v.35h.067v-.264l.1.227h.07l.101-.227v.264h.066zm-.595 0v-.29h.12v-.059h-.306v.06h.12v.289h.066zM30.562 9c0 4.97-4.15 9-9.27 9-2.163 0-4.153-.719-5.73-1.924 2.156-1.648 3.54-4.205 3.54-7.076 0-2.871-1.384-5.428-3.54-7.076C17.139.72 19.129 0 21.292 0c5.12 0 9.27 4.03 9.27 9z" transform="translate(-1444 -1099) translate(313 1085) translate(1131 14)"/>
                    </g>
                </g>
            </g>
        </g>
    </g>
</svg>
