<svg xmlns="http://www.w3.org/2000/svg" width="23" height="18" viewBox="0 0 23 18">
    <g fill="none" fill-rule="evenodd">
        <g fill="#2C2C2C" fill-rule="nonzero">
            <g>
                <path d="M22.405.426c-.331-.426-.923-.497-1.35-.165-5.329 4.192-14.044 4.192-19.397 0C1.232-.071.639 0 .308.426 0 .853.07 1.445.474 1.776 1.8 2.818 3.292 3.6 4.903 4.168v7.106c0 3.34 2.415 6.181 5.59 6.608.283.047.568.047.852.047 1.563 0 3.079-.568 4.263-1.61 1.397-1.232 2.203-3.008 2.203-4.856V4.168c1.61-.568 3.126-1.373 4.452-2.392.403-.331.474-.923.142-1.35zm-6.49 11.06c0 1.303-.568 2.559-1.562 3.411-.995.877-2.274 1.256-3.6 1.09-2.25-.308-3.932-2.321-3.932-4.713V4.76c1.16.284 2.368.45 3.6.497v5.329c0 .52.426.947.947.947.521 0 .948-.426.948-.947v-5.33c1.208-.046 2.416-.212 3.6-.496v6.726z" transform="translate(-27 -691) translate(27 691)"/>
            </g>
        </g>
    </g>
</svg>
