<svg xmlns="http://www.w3.org/2000/svg" width="201" height="122" viewBox="0 0 201 122">
    <g fill="none" fill-rule="evenodd">
        <g>
            <g>
                <g>
                    <path fill="#FA4633" fill-opacity=".111" d="M192 18c4.64 0 8.4 3.76 8.4 8.4 0 4.64-3.76 8.4-8.4 8.4h-48c4.64 0 8.4 3.76 8.4 8.4 0 4.64-3.76 8.4-8.4 8.4h26.4c4.64 0 8.4 3.76 8.4 8.4 0 4.64-3.76 8.4-8.4 8.4h-12.209c-5.85 0-10.591 3.76-10.591 8.4 0 3.093 2.4 5.893 7.2 8.4 4.64 0 8.4 3.76 8.4 8.4 0 4.64-3.76 8.4-8.4 8.4H55.2c-4.64 0-8.4-3.76-8.4-8.4 0-4.64 3.76-8.4 8.4-8.4H8.4c-4.64 0-8.4-3.76-8.4-8.4 0-4.64 3.76-8.4 8.4-8.4h48c4.64 0 8.4-3.76 8.4-8.4 0-4.64-3.76-8.4-8.4-8.4h-30c-4.64 0-8.4-3.76-8.4-8.4 0-4.64 3.76-8.4 8.4-8.4h48c-4.64 0-8.4-3.76-8.4-8.4 0-4.64 3.76-8.4 8.4-8.4H192zm0 33.6c4.64 0 8.4 3.76 8.4 8.4 0 4.64-3.76 8.4-8.4 8.4-4.64 0-8.4-3.76-8.4-8.4 0-4.64 3.76-8.4 8.4-8.4z" transform="translate(-996 -2593) translate(996 2593)"/>
                    <path fill="#FFF" stroke="#ED3F27" stroke-linecap="round" stroke-width="3" d="M128.006 16.8l11.163 81.411 1.002 8.168c.323 2.631-1.548 5.026-4.179 5.349l-70.272 8.628c-2.631.323-5.026-1.548-5.35-4.179L49.553 28.064c-.162-1.315.774-2.513 2.09-2.674l.024-.004 5.83-.653m4.715-.53l5.504-.617" transform="translate(-996 -2593) translate(996 2593)"/>
                    <path fill="#FFEBE9" d="M130.44 25.865l1.037 74.462v7.457c0 2.403-1.924 4.35-4.298 4.35H63.776c-2.374 0-4.299-1.947-4.299-4.35v-80.25c0-1.325 1.075-2.4 2.4-2.4h7.844" transform="translate(-996 -2593) translate(996 2593) rotate(-7 95.477 68.634)"/>
                    <path fill="#FFF" stroke="#ED3F27" stroke-width="3" d="M76.406 1.5c-1.822 0-3.3 1.477-3.3 3.3V96c0 1.823 1.478 3.3 3.3 3.3h70.8c1.823 0 3.3-1.477 3.3-3.3V20.922c0-.876-.348-1.715-.967-2.334L133.407 2.466c-.619-.619-1.458-.966-2.333-.966H76.406z" transform="translate(-996 -2593) translate(996 2593)"/>
                    <g fill="#ED3F27">
                        <g>
                            <path d="M7.566 41.1H5.583C2.54 41.1.066 38.543.066 35.4h2.356c0 1.8 1.418 3.266 3.16 3.266h1.984V41.1z" transform="translate(-996 -2593) translate(996 2593) translate(94 27)"/>
                            <path d="M0.066 35.7L30.066 35.7 30.066 33.3 0.066 33.3z" transform="translate(-996 -2593) translate(996 2593) translate(94 27)"/>
                            <path d="M17.765 46.5c-6.782 0-12.3-5.481-12.3-12.218h2.388c0 5.43 4.446 9.847 9.912 9.847 5.467 0 9.913-4.418 9.913-9.847 0-4.69-5.047-7.215-10.391-9.888-5.812-2.905-11.821-5.91-11.821-12.176C5.466 5.48 10.983 0 17.766 0c6.782 0 12.3 5.481 12.3 12.218h-2.388c0-5.43-4.446-9.847-9.913-9.847-5.466 0-9.912 4.418-9.912 9.847 0 4.805 5.103 7.357 10.508 10.06 5.754 2.877 11.705 5.852 11.705 12.004 0 6.737-5.518 12.218-12.3 12.218" transform="translate(-996 -2593) translate(996 2593) translate(94 27)"/>
                            <path d="M21.707 34.5c-.348-2.476-3.84-4.27-7.881-6.347C7.696 25.003.066 21.083.066 12.3h2.381c0 7.34 6.626 10.745 12.472 13.75 4.438 2.279 8.627 4.433 9.147 8.122l-2.36.328zM35.466 34.2h-2.382c0-7.34-6.626-10.745-12.473-13.75-4.436-2.28-8.627-4.433-9.145-8.122L13.824 12c.348 2.476 3.84 4.27 7.881 6.347 6.13 3.15 13.76 7.071 13.76 15.853M35.766 11.4h-2.45c0-1.8-1.475-3.266-3.287-3.266h-2.063V5.7h2.063c3.163 0 5.737 2.557 5.737 5.7" transform="translate(-996 -2593) translate(996 2593) translate(94 27)"/>
                            <path d="M5.766 13.5L35.766 13.5 35.766 11.1 5.766 11.1z" transform="translate(-996 -2593) translate(996 2593) translate(94 27)"/>
                        </g>
                    </g>
                    <path stroke="#ED3F27" stroke-linecap="round" stroke-linejoin="round" stroke-width="3" d="M131.606 2.883V16.8c0 1.988 1.612 3.6 3.6 3.6h9.52" transform="translate(-996 -2593) translate(996 2593)"/>
                </g>
            </g>
        </g>
    </g>
</svg>
