<svg xmlns="http://www.w3.org/2000/svg" width="19" height="20" viewBox="0 0 19 20">
    <g fill="none" fill-rule="evenodd">
        <g fill="#2C2C2C" fill-rule="nonzero" stroke="#2C2C2C" stroke-width=".3">
            <g>
                <path d="M16.5 7.856l-6-6c-.394-.394-.919-.637-1.481-.675l-2.625-.169c-.582-.037-1.144.15-1.594.526l.919.918c.168-.094.356-.15.543-.15h.076l2.625.169c.243.019.487.131.675.3l6 6c.187.206.3.45.3.731 0 .281-.113.544-.3.732l-4.238 4.2c-.394.393-1.088.393-1.481 0l-5.982-6c-.187-.188-.28-.413-.3-.676L3.47 5.139c-.019-.207.037-.432.15-.6L2.25 3.167c-.244.188-.45.432-.6.694L.356 6.17C.075 6.656 0 7.238.113 7.78l1.78 8.288c.226 1.087 1.2 1.819 2.25 1.819.15 0 .32-.02.488-.057l5.813-1.256c.581-.131 1.087-.469 1.406-.938.15-.093.3-.206.431-.337l4.219-4.163c.431-.43.675-1.012.675-1.63 0-.62-.225-1.2-.675-1.65zM4.369 16.613c-.263.056-.544 0-.788-.15-.225-.15-.393-.394-.45-.657L1.35 7.52c-.056-.244-.019-.506.112-.732l.732-1.33.15 2.38c.037.563.281 1.088.675 1.482l6 6c.075.075.168.15.262.225L4.37 16.613z" transform="translate(-32 -530) matrix(-1 0 0 1 50 531)"/>
                <path d="M5.231 4.969c-.168.3-.262.656-.262 1.031 0 1.219.994 2.194 2.193 2.194 1.2 0 2.194-.994 2.194-2.194s-.993-2.194-2.194-2.194c-.375 0-.73.113-1.03.263L2.343.28c-.244-.244-.656-.244-.9 0s-.244.656 0 .9L5.23 4.97zM8.1 6c0 .506-.412.938-.938.938-.506 0-.937-.413-.937-.938 0-.506.413-.938.938-.938.506 0 .937.413.937.938z" transform="translate(-32 -530) matrix(-1 0 0 1 50 531)"/>
            </g>
        </g>
    </g>
</svg>
