<svg xmlns="http://www.w3.org/2000/svg" width="19" height="15" viewBox="0 0 19 15">
    <g fill="none" fill-rule="evenodd">
        <g fill="#2C2C2C" fill-rule="nonzero">
            <g>
                <path d="M11.427 0C8.22 0 6.738 1.988 6.25 2.65c-.3.402-.243 1.005.15 1.306.15.14.338.2.544.2.263 0 .525-.12.694-.36.675-.904 1.707-1.949 3.789-1.949 2.907 0 5.27 2.53 5.27 5.643 0 3.112-2.363 5.643-5.27 5.643-2.1 0-3.132-1.045-3.789-1.948-.3-.402-.844-.482-1.237-.16-.376.32-.45.903-.15 1.324C6.737 13.012 8.22 15 11.426 15c3.863 0 7.014-3.373 7.014-7.51S15.29 0 11.427 0z" transform="translate(-34 -742) translate(34 742)"/>
                <path d="M3.02 8.385h8.588c.482 0 .871-.406.871-.91 0-.502-.39-.909-.871-.909h-8.57L4.262 5.29c.167-.174.26-.407.26-.639 0-.232-.093-.465-.26-.639-.333-.348-.89-.348-1.224 0L.348 6.856c-.333.349-.333.93 0 1.278l2.69 2.845c.167.174.39.271.612.271.223 0 .445-.097.612-.252.167-.174.26-.387.26-.638 0-.233-.093-.465-.241-.639L3.02 8.385z" transform="translate(-34 -742) translate(34 742)"/>
            </g>
        </g>
    </g>
</svg>
