<svg xmlns="http://www.w3.org/2000/svg" width="62" height="60" viewBox="0 0 62 60">
    <g fill="none" fill-rule="evenodd">
        <g fill-rule="nonzero">
            <g>
                <g>
                    <g>
                        <g fill="#000" stroke="#000" stroke-width="1.538">
                            <path d="M23.621 20.356l-8.412-9.474c-.701-.83-1.743-1.295-2.83-1.26-1.086.034-2.097.563-2.744 1.435L6.696 2.51c0-.02-.014-.04-.022-.06C5.909.76 3.934-.01 2.228.718.52 1.445-.292 3.402.396 5.124L5.52 22.54c.038.127.107.242.2.335L15.895 33.05V43.3c0 .436.353.79.79.79.435 0 .789-.354.789-.79V32.726c0-.21-.084-.41-.232-.558L6.977 21.901 1.898 4.635c-.009-.032-.02-.063-.033-.093-.391-.92.028-1.985.942-2.392.913-.406 1.984-.006 2.407.9l3.898 11.337c.021.062.05.121.084.176.14.337.332.65.567.93l6.402 7.596c.283.324.774.362 1.103.084.33-.277.376-.767.104-1.101l-6.402-7.597c-.458-.543-.592-1.289-.35-1.957.24-.668.82-1.157 1.518-1.282.7-.126 1.413.131 1.87.674l.013.014 8.421 9.495c.039.044 3.94 4.423 3.94 11.316v10.577c0 .436.354.79.79.79.436 0 .79-.354.79-.79V32.726c.003-7.497-4.17-12.18-4.34-12.37zM59.298 2.563C58.793 1.279 57.565.426 56.187.4c-1.38-.026-2.638.78-3.19 2.044 0 .02-.016.039-.023.06l-2.939 8.545c-.647-.872-1.658-1.401-2.744-1.435-1.086-.035-2.129.43-2.83 1.26l-8.405 9.474c-.175.196-4.35 4.88-4.35 12.377v10.577c0 .436.353.79.789.79.436 0 .79-.354.79-.79V32.726c0-6.863 3.903-11.272 3.947-11.323l8.42-9.488.013-.014c.709-.839 1.963-.944 2.803-.236.839.71.944 1.964.236 2.803l-6.402 7.597c-.188.214-.245.514-.15.783.096.269.329.465.61.514.281.049.567-.059.747-.28l6.405-7.59c.236-.279.427-.593.567-.931.035-.055.063-.114.084-.175l3.898-11.337c.267-.599.832-1.01 1.484-1.077.651-.068 1.29.216 1.674.746.385.53.458 1.225.191 1.824-.013.03-.024.061-.033.093L52.702 21.9 42.437 32.16c-.148.148-.232.349-.232.558v10.577c0 .282.15.543.395.684.244.141.545.141.79 0 .244-.141.394-.402.394-.684V33.052L53.96 22.877c.093-.093.162-.209.2-.335l5.122-17.416c.341-.82.347-1.74.016-2.563z" transform="translate(-528 -847) translate(314 815) translate(214 31) translate(1 2) translate(0 13.846)"/>
                        </g>
                        <g>
                            <g fill="#FAAF24">
                                <path d="M11.114 1.074C9.699-.08 8.06-.304 6.376.401 4.93 1.011 3.5 2.292 2.219 4.12.937 5.946.177 7.773.029 9.439c-.18 1.94.491 3.574 1.907 4.712.879.721 1.847 1.074 2.845 1.074 2.012 0 4.158-1.41 6.05-4.103 1.281-1.827 2.041-3.67 2.19-5.32.18-1.94-.491-3.574-1.907-4.728z" transform="translate(-528 -847) translate(314 815) translate(214 31) translate(1 2) translate(24.077 12.308) translate(.538)"/>
                            </g>
                            <g fill="#000" stroke="#000" stroke-width=".885">
                                <path d="M11.202 1.074C9.786-.08 8.147-.304 6.463.401c-1.445.61-2.875 1.891-4.157 3.718C1.025 5.946.265 7.773.116 9.439c-.179 1.94.492 3.574 1.907 4.712.88.721 1.848 1.074 2.846 1.074 2.011 0 4.157-1.41 6.05-4.103 1.28-1.827 2.04-3.67 2.19-5.32.179-1.94-.492-3.574-1.907-4.728zm-9.715 8.51c.119-1.379.79-2.965 1.922-4.568 0 0 0 0 0 0C4.54 3.414 5.778 2.292 6.969 1.78c.478-.192.94-.304 1.372-.304.551 0 1.087.16 1.58.465l-1 .577c-1.743 1.01-2.89 2.948-3.009 5.064-.09 1.602-.969 3.076-2.295 3.846l-1.475.849c-.521-.737-.76-1.635-.655-2.692zm10.25-3.927c-.118 1.379-.789 2.965-1.921 4.568C8.98 11.427 6.12 15 3.29 13.285l.998-.576c1.743-1.01 2.89-2.95 3.01-5.064.09-1.603.968-3.077 2.294-3.846l1.475-.85c.537.753.775 1.65.67 2.708z" transform="translate(-528 -847) translate(314 815) translate(214 31) translate(1 2) translate(24.077 12.308)"/>
                            </g>
                        </g>
                        <g>
                            <g fill="#FAAF24">
                                <path d="M6.174.645C5.388-.048 4.478-.182 3.542.24c-.803.365-1.598 1.134-2.31 2.23C.522 3.568.1 4.664.017 5.664c-.1 1.163.273 2.144 1.06 2.827.488.432 1.026.644 1.58.644 1.118 0 2.31-.846 3.361-2.462.712-1.096 1.134-2.202 1.217-3.192.1-1.163-.273-2.144-1.06-2.836z" transform="translate(-528 -847) translate(314 815) translate(214 31) translate(1 2) translate(41.538 7.692) translate(1.538)"/>
                            </g>
                            <g fill="#000" stroke="#000" stroke-width=".885">
                                <path d="M7.32.645C6.473-.048 5.489-.182 4.479.24c-.867.365-1.725 1.134-2.494 2.23C1.214 3.568.759 4.664.669 5.664.562 6.827.965 7.808 1.814 8.49c.527.432 1.108.644 1.707.644 1.207 0 2.495-.846 3.63-2.462.769-1.096 1.225-2.202 1.314-3.192.108-1.163-.295-2.144-1.144-2.836zM1.493 5.75c.072-.827.474-1.779 1.153-2.74 0 0 0 0 0 0 .68-.962 1.422-1.635 2.137-1.942.286-.116.563-.183.822-.183.331 0 .653.096.948.279l-.599.346c-1.046.606-1.734 1.77-1.806 3.038-.053.962-.58 1.846-1.377 2.308l-.885.51c-.313-.443-.456-.981-.393-1.616zm6.15-2.356c-.07.827-.473 1.78-1.153 2.74-.5.722-2.217 2.866-3.915 1.837l.599-.346c1.046-.606 1.734-1.769 1.806-3.038.053-.962.58-1.846 1.376-2.308l.885-.51c.322.452.465.99.403 1.625z" transform="translate(-528 -847) translate(314 815) translate(214 31) translate(1 2) translate(41.538 7.692)"/>
                            </g>
                        </g>
                        <g>
                            <g fill="#FAAF24">
                                <path d="M8.644.86C7.544-.065 6.27-.244 4.96.32 3.835.809 2.722 1.835 1.726 3.296.729 4.757.138 6.218.022 7.552c-.139 1.55.382 2.858 1.483 3.769.684.577 1.437.859 2.214.859 1.564 0 3.233-1.129 4.705-3.282.997-1.462 1.588-2.936 1.704-4.257.139-1.55-.383-2.859-1.484-3.782z" transform="translate(-528 -847) translate(314 815) translate(214 31) translate(1 2) translate(12.308) translate(1.538)"/>
                            </g>
                            <g fill="#000" stroke="#000" stroke-width=".885">
                                <path d="M9.761.86C8.63-.065 7.318-.244 5.971.32 4.814.809 3.67 1.835 2.645 3.296 1.62 4.757 1.012 6.218.893 7.552c-.143 1.55.393 2.858 1.525 3.769.704.577 1.479.859 2.277.859 1.61 0 3.326-1.129 4.84-3.282 1.025-1.462 1.633-2.936 1.752-4.257.143-1.55-.393-2.859-1.526-3.782zM1.99 7.666c.096-1.103.632-2.372 1.538-3.654 0 0 0 0 0 0 .906-1.282 1.895-2.18 2.849-2.59.381-.153.75-.243 1.097-.243.44 0 .87.128 1.263.372l-.799.461c-1.394.808-2.312 2.36-2.407 4.051-.072 1.282-.775 2.462-1.836 3.077l-1.18.68c-.417-.59-.608-1.308-.525-2.154zm8.201-3.141c-.095 1.103-.631 2.372-1.537 3.654-.668.961-2.957 3.82-5.221 2.448l.798-.461c1.395-.808 2.313-2.359 2.408-4.051.072-1.282.775-2.462 1.836-3.077l1.18-.68c.43.603.62 1.32.536 2.167z" transform="translate(-528 -847) translate(314 815) translate(214 31) translate(1 2) translate(12.308)"/>
                            </g>
                        </g>
                    </g>
                </g>
            </g>
        </g>
    </g>
</svg>
