<svg xmlns="http://www.w3.org/2000/svg" width="60" height="45" viewBox="0 0 60 45">
    <g fill="none" fill-rule="evenodd">
        <g fill-rule="nonzero" stroke="#1D1D1D" stroke-width=".75">
            <g>
                <g>
                    <g>
                        <g fill="#1D1D1D">
                            <path d="M6.472 0C3.222 0 .574 2.673.574 5.96v31.479c0 3.286 2.649 5.965 5.898 5.965h46.927c3.249 0 5.899-2.679 5.899-5.965V5.959c0-3.286-2.65-5.959-5.9-5.959H6.473zM2.669 12.749h54.534v5.278H2.67V12.75z" transform="translate(-529 -1106) translate(314 1064) translate(214 31) translate(1 12)"/>
                        </g>
                        <path fill="#FAAF24" d="M6.472 2.119h46.927c2.125 0 3.804 1.69 3.804 3.84v4.669H2.67V5.959c0-2.15 1.678-3.84 3.803-3.84zM2.669 20.146h54.534V37.44c0 2.15-1.68 3.846-3.804 3.846H6.472c-2.125 0-3.803-1.697-3.803-3.846V20.146z" transform="translate(-529 -1106) translate(314 1064) translate(214 31) translate(1 12)"/>
                        <path fill="#1D1D1D" d="M9.077 27.138c-.38-.009-.734.192-.926.523-.192.331-.192.742 0 1.073.192.331.547.531.926.523h13.181c.57-.013 1.025-.483 1.025-1.06 0-.576-.455-1.046-1.025-1.059H9.078zM9.077 32.864c-.38-.009-.734.191-.926.522-.192.332-.192.742 0 1.074.192.33.547.531.926.522h5.63c.38.009.734-.191.926-.522.192-.332.192-.742 0-1.074-.192-.33-.547-.53-.926-.522h-5.63z" transform="translate(-529 -1106) translate(314 1064) translate(214 31) translate(1 12)"/>
                    </g>
                </g>
            </g>
        </g>
    </g>
</svg>
