<svg xmlns="http://www.w3.org/2000/svg" width="18" height="18" viewBox="0 0 18 18">
    <g fill="none" fill-rule="evenodd">
        <g fill="#2C2C2C" fill-rule="nonzero">
            <g>
                <path d="M5.082 13.698c.163 0 .32-.068.432-.186l7.842-8.196c.114-.113.177-.266.177-.426 0-.16-.063-.313-.177-.426-.234-.233-.612-.233-.846 0l-7.866 8.22c-.166.174-.212.43-.117.652.096.22.314.363.555.362zM7.32 7.842c.734.032 1.414-.386 1.718-1.055.303-.67.169-1.457-.34-1.988-.507-.53-1.287-.7-1.97-.426-.682.273-1.13.934-1.13 1.669-.015.468.16.923.484 1.261.323.339.77.533 1.238.539zm0-2.34c.25-.033.494.095.61.318.116.224.08.496-.09.682-.17.186-.439.246-.671.15-.233-.097-.381-.328-.371-.58-.007-.145.045-.286.143-.393.098-.107.234-.17.379-.177zM10.68 10.158c-.737-.032-1.419.39-1.72 1.062-.302.674-.162 1.463.352 1.991.514.53 1.3.69 1.98.408.682-.283 1.122-.953 1.11-1.691.006-.463-.171-.91-.494-1.242-.323-.332-.765-.522-1.228-.528zm0 2.34c-.25.033-.494-.095-.61-.318-.116-.224-.08-.496.09-.682.17-.186.439-.246.671-.15.233.097.381.328.371.58.007.145-.045.286-.143.393-.098.107-.234.17-.379.177z" transform="translate(-32 -534) translate(32 534)"/>
                <path d="M1.5 11.532c.062.341.062.69 0 1.032-.165.654-.083 1.346.228 1.944.444.502 1.07.807 1.74.846.317.038.624.133.906.282.227.24.408.518.534.822.234.642.707 1.168 1.32 1.47.648.13 1.32-.006 1.866-.378.28-.166.586-.28.906-.336.326.054.64.168.924.336.427.256.908.41 1.404.45.157 0 .312-.025.462-.072.613-.302 1.086-.828 1.32-1.47.124-.305.305-.584.534-.822.282-.149.59-.244.906-.282.67-.04 1.296-.344 1.74-.846.311-.598.393-1.29.228-1.944-.062-.341-.062-.69 0-1.032.14-.29.334-.553.57-.774.513-.451.839-1.079.912-1.758-.078-.682-.41-1.31-.93-1.758-.236-.22-.43-.483-.57-.774-.062-.341-.062-.69 0-1.032.165-.654.083-1.346-.228-1.944-.444-.502-1.07-.807-1.74-.846-.317-.038-.624-.133-.906-.282-.227-.24-.408-.518-.534-.822-.234-.642-.707-1.168-1.32-1.47-.648-.13-1.32.006-1.866.378-.28.166-.586.28-.906.336C8.674.732 8.36.618 8.076.45 7.53.078 6.858-.058 6.21.072 5.597.374 5.124.9 4.89 1.542c-.124.305-.305.584-.534.822-.282.149-.59.244-.906.282-.67.04-1.296.344-1.74.846-.311.598-.393 1.29-.228 1.944.062.341.062.69 0 1.032-.15.293-.353.556-.6.774C.38 7.698.065 8.325 0 9c.078.682.41 1.31.93 1.758.236.22.43.483.57.774zm.3-3.486c.357-.336.637-.746.822-1.2.111-.504.111-1.026 0-1.53-.071-.372-.047-.756.072-1.116.132-.186.6-.276.99-.354.498-.06.976-.232 1.398-.504.375-.332.674-.741.876-1.2.186-.366.42-.816.636-.888.216-.072.6.144.954.312.447.247.943.39 1.452.42.513-.043 1.009-.2 1.452-.462.348-.168.768-.378.948-.324.18.054.45.522.636.888.202.459.5.868.876 1.2.422.272.9.444 1.398.504.402.078.858.168.99.354.095.366.095.75 0 1.116-.111.504-.111 1.026 0 1.53.185.456.467.866.828 1.2.3.336.6.684.6.954 0 .27-.318.6-.6.954-.357.336-.637.746-.822 1.2-.111.504-.111 1.026 0 1.53.095.366.095.75 0 1.116-.132.186-.6.276-.99.354-.498.06-.976.232-1.398.504-.375.332-.674.741-.876 1.2-.186.366-.42.816-.636.888-.216.072-.6-.144-.954-.312-.451-.228-.947-.353-1.452-.366-.513.043-1.009.2-1.452.462-.342.168-.768.378-.954.312-.186-.066-.45-.522-.636-.888-.202-.459-.5-.868-.876-1.2-.422-.272-.9-.444-1.398-.504-.402-.078-.858-.168-.99-.354-.095-.366-.095-.75 0-1.116.111-.504.111-1.026 0-1.53-.185-.456-.467-.866-.828-1.2C1.518 9.6 1.2 9.27 1.2 9s.318-.6.6-.954z" transform="translate(-32 -534) translate(32 534)"/>
            </g>
        </g>
    </g>
</svg>
