<svg xmlns="http://www.w3.org/2000/svg" width="50" height="50" viewBox="0 0 50 50">
    <g fill="none" fill-rule="evenodd">
        <g>
            <g>
                <g>
                    <g fill="#FCE3E3" transform="translate(-869 -1261) translate(838 1236) translate(31 25)">
                        <circle cx="25" cy="25" r="25"/>
                    </g>
                    <path fill="#ED5F5F" fill-rule="nonzero" d="M12.5 4.748c1.635 0 3.16.777 4.139 2.1l2.933-.002c.322 0 .582.264.582.59v1.167l3.348-3.308-3.348-3.308v1.167c0 .326-.26.59-.582.59h-5.314c-.765 0-.765-1.18 0-1.18h4.732V.59c0-.546.666-.793 1.017-.392l4.731 4.675c.23.226.235.6.011.833l-4.772 4.716c-.37.366-.985.092-.985-.422l-.002-1.973h-1.693c.244.61.378 1.275.378 1.973 0 2.9-2.317 5.252-5.175 5.252-1.634 0-3.159-.777-4.138-2.098H5.428c-.322 0-.582-.264-.582-.59v-1.167l-3.348 3.308 3.348 3.308v-1.167c0-.326.26-.59.582-.59h5.314c.765 0 .765 1.18 0 1.18H6.01v1.974c0 .546-.667.793-1.017.392L.262 15.127c-.23-.226-.235-.6-.012-.833l4.773-4.716c.37-.366.985-.092.985.422l.002 1.973h1.693c-.243-.61-.378-1.275-.378-1.973 0-2.9 2.317-5.252 5.175-5.252zm-2.034 6.146l.986-.1c.112.632.44.972 1.089.972.425 0 .98-.175.98-.698 0-.545-.866-.646-1.271-.749-.799-.203-1.595-.559-1.595-1.53 0-.867.67-1.28 1.403-1.39v-.643h.884v.645c.799.117 1.412.564 1.445 1.52l-1.013.036c-.09-.548-.379-.738-.911-.738-.309 0-.844.094-.844.502 0 .439.764.575 1.077.65.971.232 1.838.525 1.838 1.69 0 .615-.357 1.15-.915 1.385-.194.081-.42.137-.677.165v.633h-.884V12.6c-.9-.13-1.47-.659-1.592-1.706zM12.5 14.07c2.215 0 4.01-1.823 4.01-4.071 0-2.248-1.795-4.07-4.01-4.07S8.489 7.751 8.489 10c0 2.228 1.776 4.07 4.01 4.07z" transform="translate(-869 -1261) translate(838 1236) translate(31 25) translate(12 15)"/>
                </g>
            </g>
        </g>
    </g>
</svg>
