<svg xmlns="http://www.w3.org/2000/svg" width="21" height="17" viewBox="0 0 21 17">
    <g fill="none" fill-rule="evenodd">
        <g fill="#2C2C2C" fill-rule="nonzero" stroke="#2C2C2C" stroke-width=".2">
            <g>
                <path d="M19.1 4.194c-.2-.227-.54-.301-.866-.185l-1.904.677c-.183.065-.343.098-.475.098-.201 0-.414-.048-.616-.618l-.048-.134c-.194-.546-.166-.848.519-1.091l1.87-.665c.29-.103.485-.312.536-.574.05-.262-.053-.529-.283-.733-.037-.033-.378-.327-.88-.546-.51-.224-1.052-.337-1.611-.337-2.214 0-4.015 1.801-4.015 4.016 0 .692.185 1.165.192 1.185.04.102-.251.364-.362.463L9.965 6.84 8.143 5.148c-.757-.694-.762-1.356-.514-1.744.632-.989 1.745-1.367 2.484-1.618.142-.049.272-.093.384-.136.284-.108.434-.358.383-.636-.098-.53-.977-.928-2.045-.928-.842 0-2.519.265-4.297 2.043L2.831 3.836c-.241.242-.297.627-.14.98.016.037.05.115-.133.299-.093.092-.183.148-.24.148-.017 0-.037-.005-.06-.016-.332-.146-.75-.087-.979.142l-.963.963c-.42.421-.42 1.105 0 1.525L1.6 9.161c.203.204.474.316.763.316.288 0 .56-.112.763-.315l.964-.964c.241-.242.296-.626.14-.979-.018-.04-.05-.115.134-.3.353-.353.927-.156 1.52.492l1.59 1.71-2.317 2.121c-.405.406-.629.946-.629 1.521s.224 1.115.63 1.52c.405.407.946.63 1.52.63.575 0 1.118-.227 1.533-.643l2.008-2.194L12.5 14.53c.224.243.54.383.868.383.313 0 .61-.124.834-.349l1.098-1.098c.23-.23.354-.536.348-.859-.007-.322-.142-.621-.381-.842L12.69 9.374l1.002-1.095c.081-.09.327-.362.437-.362.004 0 .011 0 .022.005.02.007.493.195 1.191.195 1.09 0 2.11-.43 2.87-1.21.35-.357.625-.77.821-1.226.192-.447.241-.816.243-.831.033-.254-.03-.487-.178-.656zM4.77 5.87c-.386 0-.74.15-1.023.434-.502.502-.447.966-.313 1.267.006.015.01.03.012.039l-.936.936c-.074.073-.223.073-.296 0L.931 7.262c-.082-.081-.081-.213 0-.294l.933-.934c.016.002.032.005.041.01.42.186.88.073 1.267-.314.502-.501.448-.965.314-1.266-.007-.015-.01-.029-.012-.04l1.68-1.68C6.71 1.189 8.128.957 8.834.957c.319 0 .57.043.751.091-.838.292-1.966.757-2.69 1.889-.405.636-.482 1.636.427 2.62l-1.03 1.03c-.5-.468-1.022-.715-1.52-.715zm2.812 7.798c-.242.241-.563.375-.905.375-.342 0-.664-.134-.906-.376-.499-.499-.504-1.306-.013-1.797L8.067 9.76l1.558 1.678-2.042 2.232zm7.195-1.043c.002.084-.032.164-.094.226l-1.097 1.098c-.12.119-.335.114-.45-.01L6.893 7.217l1.059-1.06 6.724 6.248c.065.06.101.138.103.221zm3.456-7.287c-.153.357-.37.68-.643.96-.596.611-1.396.948-2.25.948-.513 0-.866-.133-.87-.135-.11-.043-.225-.065-.341-.065-.498 0-.85.39-1.082.648l-.994 1.086-1.45-1.346 1.139-1.041c.274-.248.847-.763.587-1.423-.006-.015-.133-.365-.133-.87 0-.84.327-1.63.92-2.224.595-.594 1.385-.922 2.227-.922.438 0 .862.089 1.26.264.22.096.401.213.517.296l-1.702.605c-1.063.378-1.425 1.14-1.048 2.203l.049.134c.105.296.424 1.196 1.435 1.196.235 0 .486-.049.766-.149l1.765-.627c-.026.111-.073.278-.152.462z" transform="translate(-29 -338) translate(30 339)"/>
            </g>
        </g>
    </g>
</svg>
