<svg xmlns="http://www.w3.org/2000/svg" width="17" height="17" viewBox="0 0 17 17">
    <g fill="none" fill-rule="evenodd">
        <g fill="#2C2C2C" fill-rule="nonzero" stroke="#2C2C2C" stroke-width=".3">
            <g>
                <path d="M10.768 6.713c-.212-.022-.426-.022-.638 0-.93.115-1.723.732-2.062 1.607-.324.897-.156 1.899.444 2.64l1.934 2.481 1.934-2.48c.6-.742.77-1.744.445-2.641-.339-.873-1.128-1.49-2.057-1.607zm.766 3.61l-1.072 1.393-1.07-1.393c-.375-.446-.487-1.057-.296-1.607.187-.516.646-.884 1.19-.953h.385c.544.07 1.003.437 1.19.953.182.556.058 1.167-.327 1.607h0zm-1.072-1.478c.286.014.51.25.51.535 0 .296-.24.536-.536.536-.296 0-.536-.24-.536-.536 0-.148.061-.29.17-.392.109-.102.255-.154.403-.143h-.01zM12.322 0H2.678C1.199 0 0 1.2 0 2.679v9.642c0 .71.282 1.392.785 1.894.502.503 1.183.785 1.894.785h9.642C13.801 15 15 13.8 15 12.321V2.68C15 1.199 13.8 0 12.321 0zM2.678 1.071h9.642c.888 0 1.608.72 1.608 1.608v2.587L1.07 3.29v-.61c0-.888.72-1.608 1.608-1.608zM1.07 12.321V4.377l5.267.809-1.945 8.743H2.679c-.888 0-1.608-.72-1.608-1.608h0zm11.25 1.608h-6.83l1.907-8.572 6.53.997v5.967c0 .888-.719 1.608-1.607 1.608h0z" transform="translate(-31 -615) translate(32 616)"/>
            </g>
        </g>
    </g>
</svg>
