<svg xmlns="http://www.w3.org/2000/svg" width="960" height="1400" viewBox="0 0 960 1400">
    <g fill="none" fill-rule="evenodd" opacity=".109">
        <g fill="#FFF">
            <g>
                <g>
                    <path d="M1524.123 3991.242c-580.563 0-1052.861-470.36-1052.861-1048.478h204.342c0 465.915 380.633 844.997 848.52 844.997 467.938 0 848.571-379.082 848.571-844.997 0-402.517-432.06-619.128-889.545-848.502-497.46-249.356-1011.888-507.239-1011.888-1044.921C471.262 471.223 943.56.862 1524.123.862c580.616 0 1052.914 470.361 1052.914 1048.479h-204.342c0-465.915-380.633-845.05-848.572-845.05-467.886 0-848.519 379.135-848.519 845.05 0 412.35 436.84 631.367 899.474 863.252 492.575 246.898 1001.96 502.27 1001.96 1030.17 0 578.118-472.3 1048.48-1052.915 1048.48" transform="translate(-1047 -1298)"/>
                    <path d="M1857.107 2956.861c-29.785-212.792-329.364-366.894-676.116-545.372C655.007 2140.791.43 1803.922.43 1049.314H204.77c0 630.688 568.481 923.304 1070.039 1181.396 380.686 195.896 740.15 380.965 784.695 697.957l-202.398 28.194zM3047.807 2942.764h-204.342c0-630.688-568.481-923.251-1070.039-1181.395-380.633-195.897-740.15-380.966-784.643-697.957l202.347-28.142c29.837 212.74 329.363 366.841 676.115 545.32 525.984 270.698 1180.562 607.619 1180.562 1362.174" transform="translate(-1047 -1298)"/>
                </g>
            </g>
        </g>
    </g>
</svg>
