<svg xmlns="http://www.w3.org/2000/svg" width="626" height="216" viewBox="0 0 626 216">
    <g fill="none" fill-rule="evenodd">
        <g fill="#FFF">
            <g>
                <g>
                    <g>
                        <path d="M35.2 189.138h-9.287C11.671 189.138.077 177.6.077 163.414h11.035c0 8.126 6.64 14.739 14.801 14.739h9.288v10.985z" transform="translate(-161 -592) translate(161 592)"/>
                        <path d="M0.08 164.457L138.32 164.457 138.32 153.469 0.08 153.469z" transform="translate(-161 -592) translate(161 592)"/>
                        <path d="M82.357 215.581c-31.35 0-56.855-25.4-56.855-56.618h11.035c0 25.16 20.554 45.63 45.82 45.63 25.268 0 45.823-20.47 45.823-45.63 0-21.736-23.332-33.433-48.036-45.819-26.863-13.465-54.642-27.39-54.642-56.426C25.502 25.5 51.006.101 82.357.101c31.353 0 56.857 25.4 56.857 56.617H128.18c0-25.159-20.555-45.632-45.823-45.632-25.266 0-45.82 20.473-45.82 45.632 0 22.267 23.589 34.094 48.571 46.616 26.6 13.333 54.106 27.123 54.106 55.63 0 31.218-25.504 56.617-56.857 56.617" transform="translate(-161 -592) translate(161 592)"/>
                        <path d="M100.338 159.725c-1.609-11.491-17.786-19.813-36.51-29.45C35.424 115.656.078 97.464.078 56.716h11.034c0 34.057 30.698 49.858 57.782 63.795 20.557 10.579 39.968 20.572 42.373 37.69l-10.93 1.523zM164.636 158.963H153.6c0-34.057-30.698-49.855-57.782-63.795-20.554-10.579-39.968-20.572-42.37-37.69l10.926-1.52c1.611 11.489 17.786 19.81 36.51 29.448 28.403 14.618 63.75 32.811 63.75 73.557M164.636 52.259H153.6c0-8.127-6.638-14.74-14.799-14.74h-9.29V26.534h9.29c14.243 0 25.834 11.539 25.834 25.725" transform="translate(-161 -592) translate(161 592)"/>
                        <path d="M26.509 62.212L164.636 62.212 164.636 51.224 26.509 51.224z" transform="translate(-161 -592) translate(161 592)"/>
                    </g>
                    <text font-family="SourceSansPro-Bold, Source Sans Pro" font-size="156.816" font-weight="bold" letter-spacing="6.161" transform="translate(-161 -592) translate(161 592)">
                        <tspan x="194.568" y="167.068">SIPPY</tspan>
                    </text>
                </g>
            </g>
        </g>
    </g>
</svg>
