<svg xmlns="http://www.w3.org/2000/svg" width="98" height="129" viewBox="0 0 98 129">
    <g fill="none" fill-rule="evenodd">
        <g fill="#ED3F27">
            <g>
                <g>
                    <path d="M20.946 112.545H15.42c-8.475 0-15.374-6.866-15.374-15.307h6.566c0 4.836 3.951 8.77 8.808 8.77h5.526v6.537z" transform="translate(-433 -579) translate(382 543) translate(51 36)"/>
                    <path d="M0.048 97.859L82.306 97.859 82.306 91.32 0.048 91.32z" transform="translate(-433 -579) translate(382 543) translate(51 36)"/>
                    <path d="M49.006 128.28c-18.655 0-33.831-15.114-33.831-33.69h6.566c0 14.97 12.23 27.151 27.265 27.151 15.036 0 27.266-12.18 27.266-27.151 0-12.934-13.883-19.894-28.583-27.265-15.984-8.012-32.514-16.298-32.514-33.575C15.175 15.174 30.35.06 49.005.06c18.657 0 33.833 15.114 33.833 33.69h-6.566c0-14.971-12.23-27.154-27.266-27.154C33.97 6.596 21.74 18.78 21.74 33.75c0 13.25 14.036 20.287 28.902 27.738 15.827 7.933 32.195 16.14 32.195 33.102 0 18.576-15.176 33.69-33.832 33.69" transform="translate(-433 -579) translate(382 543) translate(51 36)"/>
                    <path d="M59.705 95.043c-.957-6.838-10.583-11.79-21.725-17.524C21.079 68.82.046 57.996.046 33.749h6.566c0 20.265 18.266 29.668 34.383 37.96 12.232 6.295 23.782 12.242 25.214 22.428l-6.504.906zM97.965 94.59h-6.566c0-20.266-18.267-29.666-34.383-37.961-12.23-6.295-23.782-12.241-25.212-22.427l6.502-.904c.959 6.835 10.583 11.787 21.725 17.522 16.9 8.698 37.934 19.524 37.934 43.77M97.965 31.096h-6.566c0-4.836-3.95-8.77-8.806-8.77h-5.528v-6.537h5.528c8.475 0 15.372 6.866 15.372 15.307" transform="translate(-433 -579) translate(382 543) translate(51 36)"/>
                    <path d="M15.774 37.019L97.965 37.019 97.965 30.48 15.774 30.48z" transform="translate(-433 -579) translate(382 543) translate(51 36)"/>
                </g>
            </g>
        </g>
    </g>
</svg>
