<svg xmlns="http://www.w3.org/2000/svg" width="23" height="23" viewBox="0 0 23 23">
    <g fill="none" fill-rule="evenodd">
        <g fill="#D4D4D4" fill-rule="nonzero" stroke="#D4D4D4" stroke-width=".5">
            <path d="M888.285 678.86l1.808-3.36 4.2 7.11c.132.223.37.362.63.367h0c.254 0 .492-.13.63-.345l2.197-3.382h4.5c.414 0 .75-.336.75-.75 0-5.167-3.76-9.566-8.864-10.37-5.104-.806-10.035 2.222-11.626 7.138-.11.388.105.793.489.918.383.126.797-.075.936-.453 1.2-3.717 4.66-6.236 8.565-6.236 3.906 0 7.365 2.52 8.565 6.236.22.654.366 1.33.435 2.017h-4.125c-.255 0-.492.13-.63.345l-1.778 2.73-4.26-7.207c-.143-.227-.391-.365-.66-.368-.269.005-.515.154-.644.39l-2.228 4.11h-4.425c-.414 0-.75.336-.75.75 0 5.167 3.76 9.566 8.864 10.37 5.104.806 10.035-2.222 11.626-7.138.11-.388-.105-.793-.489-.918-.383-.126-.797.075-.936.453-1.2 3.717-4.66 6.236-8.565 6.236-3.906 0-7.365-2.52-8.565-6.236-.22-.654-.366-1.33-.435-2.017h4.125c.275 0 .528-.149.66-.39z" transform="translate(-881 -667)"/>
        </g>
    </g>
</svg>
