<svg xmlns="http://www.w3.org/2000/svg" width="14" height="17" viewBox="0 0 14 17">
    <g fill="none" fill-rule="evenodd">
        <g fill="#2C2C2C" fill-rule="nonzero">
            <g>
                <g transform="translate(-34 -652) translate(35 653)">
                    <path stroke="#2C2C2C" stroke-width=".5" d="M11.563.078H3.124c-.453 0-.828.375-.828.828v1.36H.937c-.453 0-.828.375-.828.828v11.015c0 .454.375.829.829.829h8.437c.453 0 .828-.376.828-.829V12.75h1.36c.453 0 .828-.375.828-.828V.906c-.016-.453-.375-.828-.829-.828zM9.53 14.094c0 .078-.062.14-.14.14H.953c-.078 0-.156-.062-.156-.14V3.078c0-.078.062-.14.156-.14h1.36v8.984c0 .453.374.828.828.828h6.39v1.344zm2.172-2.172c0 .078-.062.156-.156.156H3.125c-.078 0-.156-.062-.156-.156V.906c0-.078.062-.156.156-.156h8.438c.078 0 .156.063.156.156v11.016h-.016z"/>
                    <path stroke="#2C2C2C" stroke-width=".5" d="M9.86 8.016H4.827c-.187 0-.344.156-.344.343 0 .188.157.344.344.344h5.016c.187 0 .344-.156.344-.344 0-.203-.157-.343-.329-.343zM9.86 10.031H4.827c-.187 0-.344.156-.344.344 0 .188.157.344.344.344h5.016c.187 0 .344-.156.344-.344 0-.188-.157-.344-.329-.344zM9.86 5.984H4.827c-.187 0-.344.157-.344.344 0 .188.157.344.344.344h5.016c.187 0 .344-.156.344-.344 0-.187-.157-.344-.329-.344z"/>
                    <path d="M6.125 4.703c.063.063.156.11.25.11s.188-.032.25-.11l2.031-2.031c.14-.14.14-.36 0-.485-.125-.124-.36-.124-.484 0L6.14 4.22c-.157.125-.157.343-.016.484z"/>
                    <circle cx="6.438" cy="2.5" r="1"/>
                    <circle cx="8.328" cy="4.391" r="1"/>
                </g>
            </g>
        </g>
    </g>
</svg>
