<svg xmlns="http://www.w3.org/2000/svg" width="19" height="19" viewBox="0 0 19 19">
    <g fill="none" fill-rule="evenodd">
        <g fill="#2C2C2C" fill-rule="nonzero" stroke="#2C2C2C" stroke-width=".5">
            <g>
                <path d="M11.156 6.375c.88 0 1.594.713 1.594 1.594v5.312c0 .147-.06.28-.156.376l-1.438 1.438v1.374c0 .294-.237.531-.531.531-.294 0-.531-.237-.531-.531v-1.594c0-.147.06-.28.155-.376l1.438-1.438V7.97c0-.293-.237-.532-.53-.532H5.843c-.294 0-.532.239-.532.532v5.092L6.752 14.5c.096.097.155.23.155.376v1.594c0 .294-.237.531-.531.531-.294 0-.531-.237-.531-.531v-1.374l-1.438-1.438c-.096-.096-.156-.23-.156-.376V7.97c0-.88.713-1.594 1.594-1.594h5.312zM17 13.281c0 .147-.06.28-.156.376l-1.438 1.438v1.374c0 .294-.237.531-.531.531-.294 0-.531-.237-.531-.531v-1.594c0-.147.06-.28.155-.376l1.438-1.438v-4.03c0-.293-.237-.531-.53-.531h-1.063c-.294 0-.531-.237-.531-.531 0-.294.237-.532.53-.532h1.063c.88 0 1.594.714 1.594 1.594v4.25zM0 9.031c0-.88.713-1.594 1.594-1.594h1.062c.294 0 .531.238.531.532 0 .294-.237.531-.53.531H1.593c-.294 0-.532.238-.532.531v4.03L2.502 14.5c.096.097.155.23.155.376v1.594c0 .294-.237.531-.531.531-.294 0-.531-.237-.531-.531v-1.374L.156 13.657C.059 13.56 0 13.427 0 13.28v-4.25zM9.031 0H7.97C6.795 0 5.844.951 5.844 2.125v1.063c0 1.173.951 2.124 2.125 2.124H9.03c1.174 0 2.125-.951 2.125-2.125V2.125C11.156.951 10.205 0 9.031 0zm1.063 3.188c0 .586-.476 1.062-1.063 1.062H7.97c-.587 0-1.063-.476-1.063-1.063V2.125c0-.587.476-1.063 1.063-1.063H9.03c.587 0 1.063.476 1.063 1.063v1.063zM3.188 1.063c-1.174 0-2.126.951-2.126 2.125V4.25c0 1.174.952 2.125 2.125 2.125h.532c.294 0 .531-.237.531-.531 0-.294-.237-.532-.531-.532h-.531c-.587 0-1.063-.476-1.063-1.062V3.187c0-.586.476-1.062 1.063-1.062H4.25c.294 0 .531-.237.531-.531 0-.294-.237-.532-.531-.532H3.187zM15.938 4.25c0 1.174-.952 2.125-2.126 2.125h-.53c-.295 0-.532-.237-.532-.531 0-.294.237-.532.531-.532h.531c.587 0 1.063-.476 1.063-1.062V3.187c0-.586-.476-1.062-1.063-1.062H12.75c-.294 0-.531-.237-.531-.531 0-.294.237-.532.531-.532h1.063c1.173 0 2.124.952 2.124 2.125V4.25z" transform="translate(-32 -376) translate(33 377)"/>
                <path d="M9.031 9.563c-.294 0-.531-.238-.531-.532 0-.294.237-.531.531-.531h1.063c.294 0 .531.237.531.531 0 .294-.237.531-.531.531H9.03z" transform="translate(-32 -376) translate(33 377)"/>
            </g>
        </g>
    </g>
</svg>
