<svg xmlns="http://www.w3.org/2000/svg" width="18" height="19" viewBox="0 0 18 19">
    <g fill="none" fill-rule="evenodd">
        <g fill="#2C2C2C" fill-rule="nonzero" stroke="#2C2C2C" stroke-width=".5">
            <g>
                <path d="M13 1h-1V.5c0-.276-.224-.5-.5-.5s-.5.224-.5.5V1H5V.5c0-.276-.224-.5-.5-.5S4 .224 4 .5V1H3C1.343 1 0 2.343 0 4v10c0 1.657 1.343 3 3 3h10c1.657 0 3-1.343 3-3V4c0-1.657-1.343-3-3-3zm2 13c-.001 1.104-.896 1.999-2 2H3c-1.104-.001-1.999-.896-2-2V4c.001-1.104.896-1.999 2-2h1v.5c0 .276.224.5.5.5s.5-.224.5-.5V2h6v.5c0 .276.224.5.5.5s.5-.224.5-.5V2h1c1.104.001 1.999.896 2 2v10zM8 4C5.239 4 3 6.239 3 9s2.239 5 5 5 5-2.239 5-5c0-1.326-.527-2.598-1.464-3.536C10.598 4.527 9.326 4 8 4h0zm0 9c-2.21 0-4-1.79-4-4s1.79-4 4-4 4 1.79 4 4c-.002 2.208-1.792 3.998-4 4h0zm2.5-4c0 .276-.224.5-.5.5h0-2 0c-.276 0-.5-.224-.5-.5h0V6.5h0c0-.276.224-.5.5-.5s.5.224.5.5h0v2H10c.276 0 .5.224.5.5h0z" transform="translate(-33 -415) translate(34 416)"/>
            </g>
        </g>
    </g>
</svg>
