<svg xmlns="http://www.w3.org/2000/svg" width="59" height="59" viewBox="0 0 59 59">
    <g fill="none" fill-rule="evenodd">
        <g fill-rule="nonzero">
            <g>
                <g>
                    <path fill="#000" d="M26.808 9.046c1.753-1.721 1.753-4.508 0-6.23-.658-.644-.658-1.688 0-2.333.658-.644 1.724-.644 2.382 0 3.063 3.01 3.063 7.88 0 10.89-1.753 1.722-1.753 4.508 0 6.23.426.417.592 1.024.436 1.594-.156.57-.61 1.014-1.19 1.167-.582.152-1.202-.01-1.628-.428-3.062-3.01-3.062-7.88 0-10.89zm10.093 2.46c-2.375 2.33-2.375 6.106 0 8.437.658.644 1.724.644 2.382 0 .658-.644.658-1.69 0-2.334-1.062-1.044-1.062-2.732 0-3.777 1.142-1.119 1.784-2.636 1.784-4.219 0-1.582-.642-3.1-1.784-4.219-.426-.416-1.046-.58-1.627-.427-.581.153-1.035.598-1.19 1.167-.157.57.01 1.177.435 1.594.512.5.799 1.18.799 1.889 0 .708-.287 1.387-.799 1.888zm-20.186 8.437c.426.417 1.046.58 1.627.427.582-.152 1.036-.597 1.191-1.167.156-.57-.01-1.177-.436-1.594-1.061-1.044-1.061-2.732 0-3.777 2.375-2.331 2.375-6.106 0-8.438-.425-.416-1.045-.58-1.627-.427-.58.153-1.035.598-1.19 1.167-.156.57.01 1.177.435 1.594 1.062 1.044 1.062 2.733 0 3.777-2.37 2.33-2.37 6.1 0 8.431v.007zM.136 56.86c-.003-.908.743-1.648 1.67-1.655H13.56c-3.58-2.27-6.267-5.663-7.624-9.624-.107-.321-.21-.646-.31-.976-1.502-5.182-2.442-10.505-2.805-15.88-.071-1.237.379-2.447 1.245-3.35.875-.904 2.091-1.419 3.364-1.423h37.841c1.273.004 2.489.519 3.365 1.424.866.901 1.316 2.112 1.244 3.349-.067 1.134-.175 2.3-.316 3.48h.996c2.484 0 4.83 1.12 6.361 3.036 1.531 1.917 2.076 4.418 1.478 6.78-.898 3.519-4.123 5.988-7.826 5.992h-4.871c-1.544 2.923-3.837 5.401-6.655 7.192H50.56c.929 0 1.682.738 1.682 1.648 0 .91-.753 1.648-1.682 1.648H1.805c-.924-.007-1.669-.743-1.669-1.648v.007zm46.912-12.143h3.519c2.158-.003 4.037-1.443 4.562-3.494.347-1.375.03-2.831-.86-3.948-.891-1.117-2.256-1.77-3.702-1.774h-1.454c-.488 3.074-1.162 6.116-2.018 9.11l-.047.106z" transform="translate(-529 -349) translate(314 317) translate(215 32)"/>
                    <path fill="#FAAF24" d="M24.432 55.499h3.882c7.155.034 13.486-4.638 15.573-11.492l.047-.155c1.444-5.073 2.349-10.284 2.7-15.547.02-.338-.103-.669-.337-.913-.244-.256-.585-.399-.938-.392H7.407c-.352-.003-.69.142-.931.399-.235.244-.357.575-.338.913.352 5.263 1.257 10.474 2.7 15.547.082.29.17.574.264.851 2.254 6.529 8.432 10.877 15.33 10.789z" transform="translate(-529 -349) translate(314 317) translate(215 32)"/>
                </g>
            </g>
        </g>
    </g>
</svg>
