<svg xmlns="http://www.w3.org/2000/svg" width="59" height="53" viewBox="0 0 59 53">
    <g fill="none" fill-rule="evenodd">
        <g fill-rule="nonzero">
            <g>
                <g>
                    <g>
                        <path fill="#000" d="M58.833 13.967c.062-.062.062-.186.123-.248.062-.124.062-.31.062-.434v-.062-.061c0-.372-.123-.744-.308-1.053C46.132-4.86 33.37.343 29.732 2.324 26.095.343 13.332-4.859.755 12.171c-.247.31-.309.68-.309 1.052v.124c0 .124.062.31.062.434s.062.186.123.248c3.453 7.555 9.557 11.147 15.29 12.819 1.172 9.413 5.858 15.172 10.913 16.72-.123.681-.185 1.3-.185 1.92 0 4.087 3.268 7.37 7.337 7.37 4.07 0 7.337-3.283 7.337-7.37 0-2.23-.925-4.707-2.096-6.936 2.096-2.849 3.637-6.812 4.254-11.704 5.796-1.672 11.9-5.264 15.352-12.881zm-15.105 9.165c0-.31.061-.681.061-.99 0-2.912-.431-5.327-1.171-7.185h11.776c-2.405 3.84-5.98 6.565-10.666 8.175zM28.746 5.73c.616.434 1.418.434 2.034 0 0 0 3.021-2.167 7.584-2.291 5.425-.186 10.604 2.6 15.413 8.112H5.687C17.525-2.01 28.252 5.36 28.746 5.731zM5.07 14.957h11.838c-.801 1.92-1.171 4.273-1.171 7.184v.99c-4.686-1.61-8.262-4.334-10.667-8.174zm32.184 20.25c-.925-1.424-1.726-2.476-1.973-2.724-.308-.434-.801-.681-1.356-.681-.494 0-1.048.247-1.357.681-.431.557-3.082 4.025-4.747 7.803-4.131-1.363-8.817-7.122-8.817-18.145 0-4.025.863-6.13 1.665-7.184h7.214v11.457c0 .929.74 1.734 1.726 1.734s1.726-.743 1.726-1.734V14.957h7.214c.863 1.115 1.664 3.22 1.664 7.184.124 5.76-1.11 10.032-2.96 13.067z" transform="translate(-528 -604) translate(314 566) translate(214 31) translate(0 7)"/>
                        <path fill="#FAAF24" d="M33.986 49.39c-2.158 0-3.884-1.735-3.884-3.902 0-2.663 2.22-6.503 3.884-9.042 1.665 2.477 3.884 6.379 3.884 9.042 0 2.167-1.726 3.901-3.884 3.901z" transform="translate(-528 -604) translate(314 566) translate(214 31) translate(0 7)"/>
                    </g>
                </g>
            </g>
        </g>
    </g>
</svg>
